<?xml version="1.0" standalone="no"?>
<!DOCTYPE svg PUBLIC "-//W3C//DTD SVG 20010904//EN"
 "http://www.w3.org/TR/2001/REC-SVG-20010904/DTD/svg10.dtd">
<svg version="1.0" xmlns="http://www.w3.org/2000/svg"
 width="2000.000000pt" height="2000.000000pt" viewBox="0 0 2000.000000 2000.000000"
 preserveAspectRatio="xMidYMid meet">

<g transform="translate(0.000000,2000.000000) scale(0.100000,-0.100000)"
fill="#000000" stroke="none">
<path d="M8905 17391 c-81 -20 -147 -85 -164 -162 -15 -64 -15 -6820 0 -6874
15 -55 51 -99 107 -132 118 -69 276 -7 321 126 8 25 11 642 11 2338 l0 2304
643 -3 c625 -4 644 -4 720 -26 194 -54 357 -193 443 -377 75 -161 68 43 74
-2210 5 -1951 6 -2021 24 -2058 41 -83 146 -137 235 -122 57 10 127 59 159
114 l27 46 3 1975 c2 1361 0 2008 -8 2082 -19 192 -72 344 -169 487 -59 86
-194 218 -282 276 l-77 49 82 62 c235 177 386 415 434 684 30 165 23 371 -19
540 -25 100 -110 284 -169 367 -126 177 -285 314 -465 403 -132 64 -232 94
-370 110 -103 11 -1513 12 -1560 1z m1620 -470 c204 -67 360 -200 450 -386 68
-140 93 -284 75 -431 -22 -177 -90 -322 -207 -440 -88 -89 -182 -149 -291
-188 l-87 -31 -642 -3 -643 -3 0 756 0 757 638 -4 c632 -4 638 -4 707 -27z"/>
<path d="M10060 14140 c-80 -16 -138 -61 -171 -135 -18 -38 -19 -168 -19
-3422 l0 -3382 -462 -3 c-462 -3 -463 -3 -510 -26 -78 -39 -128 -120 -128
-207 0 -65 22 -115 72 -164 72 -71 -20 -66 1228 -69 777 -2 1140 1 1177 8 108
23 183 115 183 224 0 91 -48 168 -128 208 -47 23 -48 23 -509 26 l-463 3 0
3385 c0 3125 -1 3387 -16 3417 -55 106 -150 157 -254 137z"/>
<path d="M4660 13400 l0 -150 1140 0 1140 0 0 150 0 150 -1140 0 -1140 0 0
-150z"/>
<path d="M13400 13400 l0 -150 1140 0 1140 0 0 150 0 150 -1140 0 -1140 0 0
-150z"/>
<path d="M4660 12685 l0 -155 1140 0 1140 0 0 155 0 155 -1140 0 -1140 0 0
-155z"/>
<path d="M13400 12685 l0 -155 1140 0 1140 0 0 155 0 155 -1140 0 -1140 0 0
-155z"/>
<path d="M6450 5149 c-138 -8 -188 -17 -286 -54 -36 -14 -90 -31 -119 -39 -52
-13 -215 -106 -265 -151 -14 -12 -52 -40 -85 -63 -72 -50 -141 -126 -222 -247
-76 -114 -79 -119 -120 -234 -52 -147 -63 -221 -70 -477 -7 -261 6 -376 57
-494 15 -36 33 -83 40 -105 7 -22 22 -56 33 -75 45 -76 189 -259 261 -332 68
-69 93 -86 224 -153 197 -102 396 -162 569 -173 65 -4 147 -4 183 0 36 4 110
11 165 17 118 12 188 35 394 127 l154 69 142 140 c138 135 145 145 224 285 45
80 86 161 91 180 61 232 63 245 63 480 0 176 -4 241 -18 300 -29 129 -65 231
-121 347 -43 88 -72 131 -137 205 -169 189 -297 277 -492 338 -71 23 -141 45
-155 50 -176 61 -272 72 -510 59z m210 -269 c47 -6 114 -17 150 -24 36 -8 76
-17 90 -19 31 -6 133 -43 180 -65 19 -9 67 -41 105 -72 39 -30 91 -71 116 -90
45 -34 119 -129 173 -222 15 -26 45 -102 67 -169 36 -112 40 -138 51 -299 l11
-176 -33 -144 c-39 -175 -48 -199 -119 -315 -38 -62 -83 -117 -145 -178 -109
-106 -155 -137 -249 -173 -40 -15 -90 -38 -113 -50 -22 -13 -50 -24 -62 -24
-12 0 -43 -7 -69 -16 -60 -21 -280 -20 -443 1 -91 12 -131 23 -218 61 -120 52
-156 75 -259 166 -142 125 -217 238 -271 409 -37 116 -40 136 -50 309 -11 178
-7 246 17 324 5 17 12 51 15 76 15 107 127 285 270 425 95 95 108 104 211 149
188 83 317 118 460 125 17 0 69 -4 115 -9z m-1040 -284 c0 -16 -18 -31 -27
-22 -8 8 5 36 17 36 5 0 10 -6 10 -14z m-70 -6 c0 -5 -5 -10 -11 -10 -5 0 -7
5 -4 10 3 6 8 10 11 10 2 0 4 -4 4 -10z m-3 -62 c-3 -8 -6 -5 -6 6 -1 11 2 17
5 13 3 -3 4 -12 1 -19z m-7 -42 c0 -8 -6 -16 -12 -18 -17 -7 -38 1 -38 13 0 6
4 8 9 4 5 -3 12 -1 16 5 9 15 25 12 25 -4z m-92 -109 c-7 -14 -13 -17 -16 -9
-6 19 6 44 18 37 7 -4 6 -14 -2 -28z m122 -28 c0 -8 -4 -8 -13 0 -8 6 -17 8
-21 4 -4 -4 -11 -1 -16 7 -17 26 -11 31 20 15 17 -9 30 -20 30 -26z m-102 -97
c2 -7 -3 -12 -12 -12 -9 0 -16 7 -16 16 0 17 22 14 28 -4z m-73 -92 c3 -5 1
-10 -4 -10 -6 0 -11 5 -11 10 0 6 2 10 4 10 3 0 8 -4 11 -10z m5 -185 c32 -56
34 -95 4 -95 -19 0 -18 10 3 25 15 11 14 16 -17 49 -19 20 -40 36 -47 36 -16
0 -17 12 -1 28 19 19 25 15 58 -43z m-3 -191 c2 -7 -11 -14 -29 -17 -40 -6
-45 -2 -28 18 15 18 51 17 57 -1z m96 -160 c-9 -24 -18 -15 -19 18 -1 28 0 30
12 14 7 -10 10 -24 7 -32z m-143 26 c0 -5 -2 -10 -4 -10 -3 0 -8 5 -11 10 -3
6 -1 10 4 10 6 0 11 -4 11 -10z m2347 -12 c-3 -8 -6 -5 -6 6 -1 11 2 17 5 13
3 -3 4 -12 1 -19z m97 -47 c3 -4 -5 -18 -18 -30 -29 -27 -47 -10 -20 20 19 21
30 24 38 10z m-36 -88 c2 -8 -5 -13 -17 -13 -21 0 -35 13 -24 24 10 10 36 3
41 -11z m-10 -54 c5 -12 6 -34 4 -49 l-4 -27 -31 28 c-31 28 -31 29 -11 48 25
26 33 26 42 0z m-2199 -113 c-6 -6 -13 -6 -20 1 -7 7 -25 9 -40 6 -39 -8 -37
10 4 28 29 13 33 12 49 -6 10 -12 13 -24 7 -29z m2129 42 c21 -21 13 -28 -30
-28 l-43 1 24 19 c27 23 33 24 49 8z m-81 -75 c2 -6 -5 -14 -17 -18 -26 -8
-33 -3 -24 19 7 19 35 18 41 -1z m113 10 c-1 -25 -19 -35 -46 -25 l-29 10 28
1 c15 1 27 6 27 11 0 6 5 10 10 10 6 0 10 -3 10 -7z m-2230 -69 c0 -8 -4 -12
-10 -9 -5 3 -10 13 -10 21 0 8 5 12 10 9 6 -3 10 -13 10 -21z m2150 9 c0 -5
-4 -14 -9 -22 -14 -21 -2 -41 25 -41 26 0 31 -12 12 -28 -19 -15 -68 -3 -68
17 0 22 -19 41 -42 41 -31 0 -20 16 20 27 48 13 62 15 62 6z m-57 -148 c-7
-19 -33 -20 -33 -1 0 15 20 26 32 19 4 -2 5 -10 1 -18z m-58 -5 c-3 -5 -15
-10 -26 -10 -10 0 -19 5 -19 10 0 6 12 10 26 10 14 0 23 -4 19 -10z m-27 -95
c-4 -53 -22 -51 -26 2 -3 34 -7 42 -25 46 -22 3 -21 4 3 14 34 15 52 -9 48
-62z m-158 -20 c-11 -13 -9 -15 15 -15 17 0 37 -10 52 -26 13 -14 23 -27 21
-28 -2 0 -13 -7 -25 -13 -32 -18 -42 -16 -36 7 4 16 2 19 -13 14 -11 -4 -25
-12 -32 -17 -8 -7 -21 -6 -37 1 -28 13 -34 42 -9 42 11 0 13 6 9 19 -4 15 1
24 22 35 32 17 53 5 33 -19z m-92 -92 c5 -17 -26 -29 -40 -15 -6 6 -7 15 -3
22 9 14 37 9 43 -7z m-67 -67 c-14 -15 -30 -22 -42 -19 -37 10 -11 43 35 43
l29 0 -22 -24z m-114 -64 c2 -42 1 -42 -33 -42 -24 0 -34 5 -34 15 0 8 5 15
10 15 6 0 10 11 10 24 0 24 15 37 35 32 6 -2 11 -21 12 -44z m151 26 c-5 -15
-48 -24 -48 -10 0 14 12 22 33 22 10 0 17 -5 15 -12z m-368 -67 c0 -16 -70
-51 -101 -51 -18 0 -28 4 -24 10 3 6 20 10 37 10 16 0 41 9 55 20 29 22 33 24
33 11z m114 0 c3 -5 -1 -14 -8 -20 -16 -13 -32 2 -21 19 8 12 22 13 29 1z
m-527 -27 c-3 -3 -12 -4 -19 -1 -8 3 -5 6 6 6 11 1 17 -2 13 -5z m153 -14 c0
-5 -6 -10 -14 -10 -8 0 -18 5 -21 10 -3 6 3 10 14 10 12 0 21 -4 21 -10z m90
-30 c0 -5 -4 -10 -10 -10 -5 0 -10 5 -10 10 0 6 5 10 10 10 6 0 10 -4 10 -10z"/>
<path d="M6465 4789 c-49 -3 -119 -16 -155 -28 -36 -11 -75 -21 -87 -21 -55 0
-179 -82 -324 -214 -92 -83 -110 -105 -129 -154 -12 -31 -31 -77 -43 -102 -11
-25 -33 -103 -48 -174 -50 -227 -38 -455 34 -644 33 -87 146 -249 213 -308
127 -109 169 -134 281 -170 195 -63 433 -80 604 -45 226 47 401 159 529 336
86 119 126 213 155 360 15 75 17 119 12 275 -4 105 -13 207 -20 235 -8 28 -44
112 -81 189 -73 151 -105 189 -241 292 -84 64 -242 135 -346 157 -91 19 -234
26 -354 16z m384 -319 c180 -79 262 -167 332 -359 38 -102 40 -111 40 -231 1
-92 -5 -153 -21 -230 -19 -92 -28 -116 -78 -194 -84 -132 -209 -221 -351 -252
-90 -19 -303 -22 -366 -5 -131 35 -238 106 -335 223 -41 49 -56 78 -85 171
-32 96 -37 129 -42 239 -8 165 22 322 68 364 11 10 27 33 35 51 24 49 88 117
153 161 140 96 209 113 426 107 127 -3 132 -5 224 -45z m-956 -187 c-7 -2 -19
-2 -25 0 -7 3 -2 5 12 5 14 0 19 -2 13 -5z m-83 -62 c0 -12 -20 -25 -27 -18
-7 7 6 27 18 27 5 0 9 -4 9 -9z m50 -30 c-15 -29 -30 -35 -30 -13 0 22 8 32
27 32 10 0 11 -5 3 -19z m-65 -151 c3 -5 1 -10 -4 -10 -6 0 -11 5 -11 10 0 6
2 10 4 10 3 0 8 -4 11 -10z m1632 -276 c-3 -3 -12 -4 -19 -1 -8 3 -5 6 6 6 11
1 17 -2 13 -5z m-86 -206 c-4 -12 -13 -24 -19 -26 -16 -5 -15 35 1 41 23 10
26 7 18 -15z m-67 -33 c7 -20 -4 -47 -18 -42 -17 6 -20 57 -3 57 8 0 17 -7 21
-15z m46 -115 c0 -5 -9 -10 -20 -10 -11 0 -20 5 -20 10 0 6 9 10 20 10 11 0
20 -4 20 -10z m-58 -85 c9 -19 9 -28 0 -37 -15 -15 -18 -11 -25 30 -8 38 8 43
25 7z m-111 -98 c-9 -9 -13 -7 -17 11 -4 14 -14 22 -28 22 -19 0 -19 2 9 29
l30 28 9 -39 c6 -27 6 -42 -3 -51z m69 28 c0 -8 -4 -15 -10 -15 -5 0 -10 7
-10 15 0 8 5 15 10 15 6 0 10 -7 10 -15z m-173 -35 c-14 -36 -27 -39 -27 -7 0
26 7 37 26 37 9 0 10 -7 1 -30z m-112 -91 c5 -5 -4 -9 -23 -9 -35 0 -41 -10
-17 -30 8 -7 15 -18 15 -25 0 -13 -29 -30 -31 -17 0 4 -2 23 -5 42 -6 49 1 63
28 55 13 -4 27 -11 33 -16z m60 -37 c-10 -10 -16 -12 -13 -7 3 6 8 19 13 30 5
14 9 16 12 7 3 -8 -3 -21 -12 -30z"/>
<path d="M13458 5129 c-71 -25 -127 -83 -157 -164 -12 -32 -30 -70 -40 -84
-10 -14 -48 -97 -85 -184 -37 -86 -78 -173 -91 -193 -13 -19 -27 -49 -30 -66
-4 -17 -15 -45 -26 -62 -10 -17 -25 -49 -33 -71 -15 -43 -37 -90 -231 -495
-70 -146 -139 -296 -152 -335 -14 -38 -31 -77 -38 -85 -7 -8 -16 -26 -20 -40
-4 -14 -26 -61 -49 -105 -23 -44 -53 -109 -66 -145 -13 -36 -31 -74 -41 -85
-10 -12 -24 -36 -30 -55 -6 -19 -26 -66 -45 -105 -57 -118 -65 -151 -53 -200
15 -61 33 -65 274 -65 283 0 335 19 401 146 39 75 88 130 136 155 38 19 57 20
439 19 441 0 428 1 508 -66 33 -27 71 -91 71 -118 0 -27 59 -83 117 -110 55
-27 59 -27 255 -26 109 0 221 5 247 11 48 10 49 11 53 52 6 56 -36 178 -114
332 -33 66 -71 147 -83 180 -13 33 -47 107 -77 165 -29 58 -73 155 -97 215
-24 61 -66 148 -92 195 -27 47 -49 92 -49 99 0 19 -67 165 -110 241 -21 36
-43 82 -50 104 -7 21 -64 147 -127 280 -63 132 -121 258 -129 280 -37 102
-126 277 -167 329 -24 29 -45 42 -95 57 -35 11 -65 20 -66 19 0 0 -27 -9 -58
-20z m50 -102 c21 -19 22 -20 22 -2 0 14 3 16 12 7 7 -7 17 -8 28 -2 22 12 43
-3 38 -26 -2 -14 -15 -21 -45 -25 -53 -7 -75 -24 -67 -54 5 -20 0 -25 -38 -37
-24 -8 -43 -19 -43 -24 0 -5 -4 -15 -9 -22 -6 -10 -14 -4 -32 22 -13 19 -24
40 -24 45 0 14 17 14 25 1 12 -19 85 -9 85 11 0 5 -19 8 -42 7 -39 -3 -43 -1
-46 21 -2 15 3 28 12 33 9 5 16 18 16 28 0 25 39 52 65 44 11 -4 30 -16 43
-27z m123 -77 c19 0 34 -8 44 -24 20 -30 10 -54 -23 -59 -29 -3 -19 -11 30
-21 30 -7 88 -79 88 -110 0 -12 9 -32 20 -46 25 -32 25 -40 -1 -40 -29 0 -19
-22 18 -40 32 -16 59 -61 49 -85 -3 -10 -19 -15 -43 -15 l-38 0 24 19 c25 19
24 51 -2 51 -7 0 -32 9 -55 20 -41 20 -42 20 -35 65 5 38 3 45 -13 51 -48 14
-57 33 -43 84 3 11 -3 14 -22 12 -19 -2 -31 5 -43 23 -13 20 -25 25 -59 25
l-42 0 43 22 c37 19 44 20 52 8 7 -12 10 -11 16 4 5 13 1 24 -14 36 -22 18
-18 35 6 25 7 -3 27 -5 43 -5z m-297 -160 c-12 -19 -21 -25 -25 -18 -9 14 11
48 29 48 10 0 9 -7 -4 -30z m253 -80 c60 -114 300 -625 317 -674 26 -76 355
-795 391 -856 38 -63 122 -265 127 -306 9 -78 -69 -10 -126 110 -51 105 -78
134 -160 172 l-59 27 -171 -9 c-188 -10 -297 -11 -576 -5 -388 8 -446 2 -500
-54 -18 -19 -61 -87 -95 -152 -34 -65 -68 -119 -76 -120 -8 -2 -21 1 -29 7
-13 8 -13 16 4 62 10 29 46 112 81 183 35 72 91 198 124 280 34 83 77 175 95
205 18 30 39 73 46 95 7 22 18 50 26 62 8 12 23 44 33 71 11 26 32 71 49 98
16 28 33 62 37 75 9 28 117 266 175 385 22 44 40 85 40 90 0 5 15 41 34 79 19
39 53 110 75 158 39 86 41 88 72 85 27 -3 36 -11 66 -68z m-241 -29 c-28 -44
-67 -60 -45 -18 12 22 61 68 67 62 2 -2 -8 -22 -22 -44z m-96 -117 c-18 -21
-24 -10 -8 15 7 12 14 17 16 11 2 -6 -2 -17 -8 -26z m624 -166 c32 -49 29 -79
-7 -55 -12 8 -22 23 -22 33 0 11 -6 29 -13 42 -24 42 12 25 42 -20z m106 -153
c-8 -15 -70 -12 -70 3 0 9 12 12 38 10 20 -2 35 -7 32 -13z m24 -86 c-3 -5
-10 -7 -15 -3 -5 3 -7 10 -3 15 3 5 10 7 15 3 5 -3 7 -10 3 -15z m123 -351
c-3 -8 -6 -5 -6 6 -1 11 2 17 5 13 3 -3 4 -12 1 -19z m-1297 -208 c0 -5 -7
-10 -15 -10 -8 0 -15 5 -15 10 0 6 7 10 15 10 8 0 15 -4 15 -10z m-104 -236
c-30 -21 -44 -16 -17 7 13 11 27 17 30 13 3 -3 -3 -12 -13 -20z m-59 -186 c-3
-8 -6 -5 -6 6 -1 11 2 17 5 13 3 -3 4 -12 1 -19z m-60 -24 c-3 -3 -12 -4 -19
-1 -8 3 -5 6 6 6 11 1 17 -2 13 -5z m-17 -42 c0 -23 -45 -9 -48 15 -3 20 -1
21 22 10 14 -7 26 -18 26 -25z m691 -23 c19 -10 20 -11 3 -23 -9 -7 -25 -33
-34 -57 -22 -54 -46 -62 -77 -23 -21 27 -23 27 -41 11 -39 -35 -58 -13 -21 24
16 16 28 20 52 15 17 -4 34 -11 37 -17 10 -15 33 18 26 37 -7 17 9 44 26 44 5
0 18 -5 29 -11z m-241 -34 c26 8 26 -1 -1 -16 -17 -9 -25 -7 -45 12 -13 12
-21 26 -17 32 4 6 14 1 24 -12 13 -16 25 -21 39 -16z m-440 8 c3 -2 -6 -12
-18 -22 l-23 -17 26 -12 26 -12 -21 -22 c-11 -12 -20 -32 -20 -44 0 -12 -11
-36 -25 -52 -14 -17 -24 -36 -23 -44 2 -9 -7 -12 -30 -10 -26 3 -34 -1 -41
-21 -6 -14 -16 -27 -23 -29 -10 -4 -10 -10 -1 -31 12 -25 10 -27 -12 -33 -15
-4 -32 -1 -40 6 -20 17 -19 28 3 26 14 -1 16 6 14 40 -2 27 2 45 12 53 12 10
13 18 5 34 -9 16 -8 23 7 34 10 7 28 13 41 13 13 0 23 5 23 10 0 6 6 10 13 10
7 0 19 6 25 12 10 10 6 19 -20 41 l-33 28 23 16 c12 8 22 22 22 30 0 12 9 13
43 8 23 -4 44 -9 47 -12z m355 -23 c0 -8 -12 -21 -27 -30 -26 -14 -29 -13 -49
7 -12 11 -18 26 -14 33 10 17 90 9 90 -10z m483 -28 c5 -15 -13 -15 -39 -1
-11 5 -17 14 -14 19 7 11 48 -3 53 -18z m-88 -1 c0 -9 -45 -31 -63 -31 -7 1 1
12 17 25 28 22 46 25 46 6z m428 -22 c2 -10 -6 -14 -25 -13 -46 2 -49 4 -23
19 29 16 44 14 48 -6z m-748 -38 c0 -21 -60 -71 -105 -87 -21 -8 -32 -19 -36
-40 -5 -28 -5 -28 -13 -6 -11 33 -26 27 -26 -12 0 -25 -6 -38 -24 -50 -16 -10
-26 -27 -28 -48 -3 -28 -8 -33 -40 -41 -21 -5 -38 -13 -38 -19 0 -5 -4 -6 -10
-3 -5 3 -10 14 -10 24 0 11 -10 21 -22 25 -22 5 -22 6 -4 19 16 12 16 14 2 26
-17 14 -22 41 -7 41 5 0 18 16 30 35 15 25 26 34 42 32 17 -1 24 5 31 30 11
42 22 48 88 48 52 0 55 1 52 23 -3 21 -1 23 31 17 20 -4 44 -2 53 3 23 13 34
7 34 -17z m1110 -31 c0 -5 -5 -10 -11 -10 -5 0 -7 5 -4 10 3 6 8 10 11 10 2 0
4 -4 4 -10z m-1546 -114 c32 -27 30 -55 -6 -71 -13 -6 -24 -18 -26 -28 -3 -14
1 -17 21 -12 20 5 27 2 32 -14 3 -11 3 -25 0 -31 -10 -15 -53 -12 -81 7 -22
14 -27 14 -34 2 -8 -11 -11 -12 -22 -1 -11 11 -10 16 5 26 12 9 17 24 15 47
-3 29 1 34 20 37 16 3 25 12 29 33 7 35 10 35 47 5z"/>
<path d="M13430 4996 c0 -8 5 -18 10 -21 6 -3 10 1 10 9 0 8 -4 18 -10 21 -5
3 -10 -1 -10 -9z"/>
<path d="M13491 4562 c-17 -16 -58 -95 -106 -202 -42 -96 -124 -271 -181 -387
-57 -117 -104 -215 -104 -217 0 -3 -42 -97 -94 -209 -101 -219 -107 -243 -58
-275 31 -20 35 -21 622 -27 475 -6 486 -5 518 14 51 33 45 70 -42 257 -40 88
-85 184 -98 214 -14 30 -81 174 -148 320 -184 399 -218 473 -224 496 -4 12
-18 26 -31 32 -22 10 -29 8 -54 -16z m39 -262 c0 -5 -2 -10 -4 -10 -3 0 -8 5
-11 10 -3 6 -1 10 4 10 6 0 11 -4 11 -10z m75 -85 c0 -33 -3 -40 -20 -40 -15
0 -21 8 -23 28 -5 39 5 59 25 55 14 -2 18 -13 18 -43z m-157 -33 c3 -9 -2 -13
-14 -10 -9 1 -19 9 -22 16 -3 9 2 13 14 10 9 -1 19 -9 22 -16z m172 -69 c14
-19 17 -30 10 -37 -8 -8 -13 -7 -19 3 -11 17 -34 4 -27 -15 4 -12 2 -12 -15
-4 -19 11 -20 13 -4 37 14 21 15 27 4 34 -10 6 -8 9 8 9 12 0 31 -12 43 -27z
m-233 -46 c-2 -6 -7 -12 -13 -14 -15 -4 -37 14 -30 25 8 13 48 3 43 -11z m171
-84 c18 -16 52 -91 159 -346 30 -72 25 -110 -20 -138 -29 -18 -43 -20 -132
-14 -55 3 -121 6 -147 5 -68 -1 -108 22 -108 63 0 33 151 398 178 430 8 9 23
17 32 17 10 0 27 -8 38 -17z m132 -3 c0 -5 -12 -10 -26 -10 -14 0 -23 4 -19
10 3 6 15 10 26 10 10 0 19 -4 19 -10z m121 -323 c-1 -12 -15 -9 -19 4 -3 6 1
10 8 8 6 -3 11 -8 11 -12z m-635 -34 c-7 -7 -26 7 -26 19 0 6 6 6 15 -2 9 -7
13 -15 11 -17z m-39 -29 c-3 -3 -12 -4 -19 -1 -8 3 -5 6 6 6 11 1 17 -2 13 -5z
m56 -31 c-7 -2 -21 -2 -30 0 -10 3 -4 5 12 5 17 0 24 -2 18 -5z m9 -199 c-5
-39 -24 -53 -47 -34 -20 17 -19 26 7 50 32 30 45 25 40 -16z m228 -4 c0 -5 -5
-10 -11 -10 -5 0 -7 5 -4 10 3 6 8 10 11 10 2 0 4 -4 4 -10z m-345 -30 c3 -5
1 -10 -4 -10 -6 0 -11 5 -11 10 0 6 2 10 4 10 3 0 8 -4 11 -10z"/>
<path d="M12470 2894 c0 -17 22 -14 28 4 2 7 -3 12 -12 12 -9 0 -16 -7 -16
-16z"/>
<path d="M12791 2845 c-7 -19 -24 -43 -37 -52 -31 -20 -18 -38 18 -24 45 17
82 101 48 108 -10 3 -20 -9 -29 -32z"/>
<path d="M3040 5119 c-111 -12 -147 -29 -175 -84 -20 -39 -20 -58 -18 -1167 2
-1303 -4 -1223 86 -1262 48 -21 65 -22 238 -20 238 4 274 14 301 89 15 43 18
85 18 298 0 226 2 251 19 286 37 72 82 83 227 58 90 -16 129 -47 180 -142 20
-38 54 -95 74 -125 20 -30 54 -86 75 -125 20 -38 43 -77 50 -85 7 -8 26 -45
44 -81 21 -45 45 -78 76 -103 72 -60 117 -68 390 -71 212 -3 245 -1 281 15 34
15 43 24 51 56 8 33 6 46 -13 86 -13 26 -28 49 -34 53 -6 4 -24 32 -40 64 -16
32 -53 94 -83 137 -29 43 -56 87 -60 96 -9 26 -166 276 -177 283 -17 10 -11
108 9 150 10 22 39 59 64 83 30 27 71 86 117 166 58 103 74 141 95 230 40 168
30 334 -30 521 -45 143 -69 181 -194 315 -117 124 -185 169 -326 213 -185 58
-213 62 -490 64 -143 2 -287 2 -320 2 -33 -1 -91 -2 -130 -2 -38 -1 -101 2
-140 5 -38 4 -113 2 -165 -3z m447 -156 c-9 -9 -19 -14 -23 -11 -10 10 6 28
24 28 15 0 15 -1 -1 -17z m743 -52 c0 -12 -20 -25 -27 -18 -7 7 6 27 18 27 5
0 9 -4 9 -9z m110 -25 c0 -14 -29 -26 -62 -26 -25 0 -12 28 15 33 41 8 47 7
47 -7z m180 -112 c0 -6 -9 -19 -19 -28 -17 -16 -25 -16 -58 -6 -21 6 -51 26
-66 43 -23 27 -35 32 -72 32 -25 0 -45 3 -45 7 0 12 68 29 92 23 16 -4 32 0
49 14 l24 20 48 -47 c26 -25 47 -51 47 -58z m-422 65 c193 -52 331 -161 408
-324 54 -113 68 -195 61 -340 -4 -88 -11 -124 -33 -180 -51 -129 -148 -251
-234 -295 -14 -7 -51 -31 -82 -54 -83 -60 -82 -75 31 -263 48 -81 101 -173
116 -203 15 -30 61 -110 101 -177 77 -127 91 -165 62 -171 -28 -5 -88 58 -125
132 -19 39 -43 80 -53 91 -10 11 -75 115 -144 230 -133 222 -170 267 -233 284
-54 15 -644 15 -695 -1 -62 -18 -66 -33 -73 -303 -7 -247 -19 -393 -36 -410
-6 -6 -16 -3 -27 8 -16 17 -17 77 -17 955 0 879 1 939 18 973 33 67 47 69 414
69 179 -1 328 2 332 6 10 10 128 -5 209 -27z m-1068 -124 c0 -9 -9 -15 -22
-15 -21 0 -21 0 -2 15 24 18 24 18 24 0z m1540 -15 c29 -15 40 -27 40 -43 0
-12 7 -32 15 -44 21 -30 1 -39 -31 -14 -14 11 -39 38 -55 60 -46 65 -38 76 31
41z m-1545 -80 c-3 -5 -10 -10 -16 -10 -5 0 -9 5 -9 10 0 6 7 10 16 10 8 0 12
-4 9 -10z m1665 -77 c-1 -26 -49 -51 -71 -37 -8 5 -4 13 12 25 24 19 59 25 59
12z m-1630 -23 c0 -5 -4 -10 -10 -10 -5 0 -10 5 -10 10 0 6 5 10 10 10 6 0 10
-4 10 -10z m1636 -68 c-22 -5 -30 3 -21 18 5 8 11 7 22 -2 15 -12 14 -13 -1
-16z m27 -135 c14 -17 22 -45 23 -77 2 -27 5 -53 8 -58 2 -4 1 -14 -4 -22 -8
-13 -11 -13 -25 1 -14 14 -15 22 -4 58 12 41 12 43 -19 71 -34 31 -43 64 -16
58 9 -2 26 -15 37 -31z m-42 -141 c10 -37 3 -49 -22 -36 -25 14 -27 73 -2 68
9 -2 20 -16 24 -32z m-1717 -45 c3 -5 -1 -14 -9 -21 -13 -10 -15 -9 -15 9 0
21 14 28 24 12z m1736 -101 c0 -5 -4 -12 -10 -15 -5 -3 -10 -17 -10 -30 0 -32
-25 -23 -45 16 -14 26 -13 29 7 43 21 15 58 7 58 -14z m-59 -125 c23 -40 23
-52 -1 -60 -26 -8 -26 -21 1 -28 30 -8 13 -27 -24 -27 -18 0 -43 -8 -57 -17
-17 -12 -25 -13 -28 -5 -4 14 -21 15 -41 3 -12 -8 -12 -13 3 -35 21 -32 31
-32 72 -1 35 27 49 31 58 16 9 -14 -44 -72 -62 -69 -11 2 -21 -12 -32 -51 -12
-39 -24 -58 -44 -68 -51 -27 -65 -44 -59 -74 6 -30 -17 -49 -56 -49 -12 0 -21
-4 -21 -10 0 -5 21 -7 49 -3 l50 6 31 -49 c27 -43 29 -50 15 -60 -19 -14 -19
-33 0 -40 8 -4 15 -15 15 -25 0 -11 11 -24 25 -31 19 -8 25 -19 25 -43 0 -17
-5 -36 -12 -43 -9 -9 -7 -12 11 -12 31 0 64 -38 58 -68 -3 -17 7 -36 35 -69
35 -41 39 -50 33 -82 -8 -41 -21 -61 -41 -61 -17 0 -17 -5 -3 -28 13 -22 -2
-67 -29 -81 -16 -8 -25 -4 -48 20 l-29 30 22 17 c16 12 25 34 31 77 6 33 7 65
5 72 -3 8 2 13 12 13 15 0 15 2 4 16 -8 10 -25 14 -47 12 -33 -3 -34 -2 -64
74 -22 55 -47 95 -85 138 l-54 60 25 11 c30 14 34 36 9 55 -13 9 -21 9 -31 1
-22 -18 -83 59 -76 96 4 17 1 27 -6 27 -7 0 -9 7 -6 16 4 10 -1 25 -10 35 -15
17 -15 20 0 43 9 14 16 37 16 52 0 25 2 26 39 21 44 -6 56 0 40 19 -8 10 -4
22 16 49 15 19 31 35 36 35 5 0 26 23 46 50 33 44 41 50 65 45 26 -6 72 15 90
40 14 19 8 44 -12 50 -11 4 -18 11 -14 16 10 18 37 5 55 -26z m-1602 11 c10
-12 8 -17 -8 -26 -12 -6 -21 -17 -21 -25 0 -18 -14 -19 -41 -5 -28 15 -24 40
6 40 16 0 25 6 25 15 0 19 24 19 39 1z m-62 -97 c-14 -8 -22 -8 -30 0 -8 8 -3
11 19 11 25 -1 27 -2 11 -11z m76 -229 c-6 -24 -19 -34 -27 -21 -4 5 1 17 10
25 20 21 23 20 17 -4z m673 -75 c-23 -17 -36 -19 -36 -6 0 11 18 19 40 20 11
0 10 -3 -4 -14z m64 -20 c0 -31 12 -32 25 -3 12 28 45 36 57 14 8 -13 19 -15
60 -10 41 6 50 4 46 -7 -3 -8 -15 -15 -27 -15 -27 -2 -35 -9 -28 -28 5 -12 13
-13 39 -5 18 5 38 9 45 9 18 0 83 -65 83 -83 0 -8 14 -27 30 -40 18 -16 30
-35 30 -50 0 -14 7 -30 15 -37 18 -15 10 -31 -10 -23 -9 3 -15 -1 -15 -10 0
-9 8 -18 18 -21 10 -3 22 -19 28 -34 8 -20 20 -31 41 -35 36 -7 49 -33 28 -57
-19 -21 -19 -30 2 -30 23 0 53 -29 53 -52 0 -10 10 -28 22 -40 25 -25 15 -49
-23 -58 -33 -8 -38 -40 -7 -40 13 0 29 5 36 12 19 19 62 -28 62 -69 0 -47 -23
-52 -81 -20 -51 29 -84 34 -93 15 -5 -10 -7 -10 -12 0 -3 8 -28 43 -55 78 -27
35 -45 64 -39 64 26 0 5 47 -45 99 -44 47 -57 67 -64 106 -6 35 -17 54 -35 68
-15 10 -26 28 -26 41 0 46 -208 184 -259 171 -16 -4 -31 1 -47 16 -26 25 -44
18 -44 -17 0 -17 -6 -24 -19 -24 -17 0 -19 5 -14 34 3 23 0 42 -11 57 -9 13
-16 27 -16 31 0 16 37 7 70 -17 23 -17 47 -25 74 -25 34 0 44 5 61 30 24 36
45 39 45 5z m-347 -15 c7 -14 26 -29 45 -35 24 -7 32 -15 32 -32 0 -14 6 -23
15 -23 23 0 8 -22 -40 -57 -27 -20 -56 -33 -74 -33 -35 0 -48 -15 -31 -35 13
-16 9 -18 -26 -16 -11 1 -31 -7 -45 -18 -40 -31 -56 -13 -33 38 16 37 44 57
44 31 0 -19 21 -10 29 13 5 12 21 29 35 36 24 13 28 13 40 -5 12 -15 17 -16
27 -7 10 10 9 16 -1 28 -24 29 -48 37 -70 23 -17 -11 -22 -10 -30 2 -8 12 -13
12 -44 -3 -35 -16 -36 -16 -36 2 0 11 -3 26 -6 35 -5 12 0 16 19 16 18 0 28 7
33 23 11 36 20 42 63 42 34 0 44 -4 54 -25z m57 4 c0 -14 -3 -14 -15 -4 -8 7
-15 14 -15 16 0 2 7 4 15 4 8 0 15 -7 15 -16z m-518 -41 c10 -9 18 -24 18 -33
0 -9 5 -21 12 -28 9 -9 8 -12 -4 -12 -16 0 -68 60 -68 79 0 16 21 13 42 -6z
m58 -183 c0 -13 -7 -13 -31 1 -11 5 -17 14 -14 20 7 11 45 -7 45 -21z m-10
-33 c0 -2 -13 -16 -30 -32 -33 -32 -42 -21 -10 13 18 19 40 29 40 19z m360
-59 c0 -18 7 -42 15 -52 8 -11 15 -26 15 -33 0 -22 -20 -14 -30 12 -5 14 -17
25 -26 25 -13 0 -15 -8 -12 -34 3 -28 0 -37 -19 -47 -24 -13 -47 -4 -24 10 10
7 9 10 -3 14 -20 8 -21 41 -1 57 9 7 13 21 10 30 -7 24 17 41 68 49 4 0 7 -14
7 -31z m-360 -126 c0 -15 -28 -47 -35 -40 -11 11 5 48 21 48 8 0 14 -4 14 -8z
m383 -49 c4 -20 4 -40 1 -45 -11 -17 -32 -7 -44 22 -10 24 -10 33 0 45 21 25
37 17 43 -22z m-73 -123 c7 -16 19 -30 27 -30 13 0 13 -3 3 -15 -10 -13 -10
-19 4 -33 23 -26 20 -32 -12 -32 -21 0 -32 -7 -40 -25 -11 -25 -36 -33 -46
-16 -3 5 6 12 21 16 21 5 24 8 12 16 -12 7 -11 9 4 9 9 0 18 6 18 13 5 43 2
65 -13 89 -22 32 -22 38 -4 38 7 0 19 -13 26 -30z m1434 -50 c34 0 9 -25 -31
-31 -41 -5 -41 -5 -46 30 -5 46 12 58 38 26 12 -14 29 -25 39 -25z m-282 -72
c-15 -15 -16 -38 -1 -38 6 0 19 10 30 23 17 20 18 21 19 3 0 -23 -27 -56 -47
-56 -7 0 -22 9 -34 21 -20 20 -20 22 -3 40 9 10 24 19 33 19 12 0 12 -3 3 -12z"/>
<path d="M3259 4768 c-50 -30 -53 -62 -52 -531 2 -479 7 -523 62 -551 27 -14
117 -17 581 -17 30 0 102 5 160 12 175 19 268 72 371 212 80 107 109 199 109
341 0 162 -49 285 -152 382 -71 67 -125 98 -240 134 l-96 31 -358 2 c-321 2
-360 0 -385 -15z m295 -103 c-6 -16 -24 -21 -24 -7 0 11 11 22 21 22 5 0 6 -7
3 -15z m260 -12 c36 -17 63 -52 29 -38 -10 5 -27 9 -38 10 -11 1 -28 5 -37 9
-10 3 -25 8 -34 11 -8 3 -12 9 -9 15 9 15 50 12 89 -7z m131 -3 c2 -4 -1 -15
-8 -24 -12 -16 -14 -16 -37 3 -20 16 -22 22 -11 30 14 9 48 4 56 -9z m199 -46
c17 -44 -61 -65 -130 -35 -25 11 -43 25 -39 31 8 13 38 13 70 -2 23 -10 28
-10 36 5 13 22 55 22 63 1z m-734 -12 c0 -5 -7 -17 -16 -28 -14 -17 -15 -17
-10 -1 3 10 6 23 6 28 0 5 5 9 10 9 6 0 10 -4 10 -8z m464 -52 c33 -5 94 -15
134 -21 73 -11 74 -11 118 -68 67 -84 77 -112 77 -221 1 -89 -1 -99 -32 -157
-68 -126 -172 -165 -431 -159 -176 4 -202 12 -231 68 -17 33 -19 60 -19 247 0
291 5 299 180 311 52 4 106 7 119 8 13 1 51 -2 85 -8z m-494 -130 c0 -5 -4
-10 -10 -10 -5 0 -10 5 -10 10 0 6 5 10 10 10 6 0 10 -4 10 -10z m20 -52 c0
-7 -4 -19 -9 -27 -7 -11 -11 -10 -20 6 -5 11 -7 23 -4 27 11 11 33 7 33 -6z
m954 -107 c3 -4 3 -11 0 -14 -8 -8 -34 3 -34 14 0 11 27 12 34 0z m-18 -96
c11 -17 22 -24 34 -20 27 8 32 -10 10 -30 -18 -16 -22 -16 -43 -2 -14 9 -35
13 -53 10 l-29 -6 24 26 c12 14 20 30 16 36 -14 24 26 9 41 -14z m-1031 -25
c6 -36 10 -40 36 -40 16 0 29 -4 29 -10 0 -5 0 -13 0 -17 0 -6 -26 -8 -59 -4
-11 1 -31 57 -31 87 0 39 18 27 25 -16z m1000 -105 c11 -19 16 -37 12 -41 -9
-9 -59 25 -52 36 3 5 1 11 -5 15 -6 4 -8 11 -5 16 12 18 32 8 50 -26z m62 19
c-3 -3 -12 -4 -19 -1 -8 3 -5 6 6 6 11 1 17 -2 13 -5z m-1021 -35 c3 -6 19 -9
34 -5 28 5 60 -17 60 -41 0 -6 7 -16 15 -23 8 -7 15 -24 15 -38 0 -24 0 -25
20 -7 23 21 22 21 44 -22 16 -33 16 -33 -8 -33 -28 0 -51 -24 -42 -45 6 -17
48 -20 77 -4 14 7 18 16 14 30 -6 18 -3 17 41 -6 48 -25 48 -25 56 -5 9 23 36
27 44 5 4 -8 13 -15 21 -15 9 0 13 6 10 14 -9 23 18 39 33 20 13 -14 32 -14
74 2 20 8 56 -50 56 -89 0 -22 -4 -28 -17 -25 -11 2 -18 13 -18 25 0 13 -6 28
-13 35 -9 9 -16 5 -32 -15 -12 -15 -28 -27 -36 -27 -8 0 -23 -5 -33 -12 -23
-14 -53 5 -44 28 8 22 -13 16 -30 -8 l-16 -23 -20 25 -21 25 0 -22 c0 -27 -8
-29 -25 -6 -12 17 -14 17 -35 -2 -27 -25 -98 -25 -112 -1 -5 9 -18 16 -30 16
-16 0 -19 5 -15 21 5 18 2 20 -18 15 -27 -7 -91 20 -100 42 -10 26 7 34 66 30
56 -4 81 8 39 19 -21 6 -27 28 -10 38 25 15 9 35 -28 35 -33 0 -38 -3 -37 -22
0 -39 -19 -31 -22 8 -3 55 23 94 43 63z m861 -61 c-3 -8 -6 -5 -6 6 -1 11 2
17 5 13 3 -3 4 -12 1 -19z m87 -4 c17 -17 12 -39 -6 -28 -6 4 -17 -1 -24 -11
-12 -16 -14 -16 -19 -2 -7 17 10 57 25 57 5 0 16 -7 24 -16z m-169 -84 c3 -5
-3 -10 -15 -10 -14 0 -30 -16 -51 -51 -29 -47 -33 -50 -63 -43 -39 8 -41 10
-27 28 8 10 9 16 1 21 -5 3 -10 15 -10 25 0 17 3 18 24 9 18 -9 31 -7 62 10
43 22 70 26 79 11z m57 -52 c-7 -7 -12 -8 -12 -2 0 6 3 14 7 17 3 4 9 5 12 2
2 -3 -1 -11 -7 -17z m-55 -14 c-3 -3 -12 -4 -19 -1 -8 3 -5 6 6 6 11 1 17 -2
13 -5z"/>
<path d="M4362 3565 c-14 -31 -15 -45 -3 -45 8 0 24 60 18 67 -2 2 -9 -8 -15
-22z"/>
<path d="M4325 3501 c-3 -5 -1 -12 5 -16 5 -3 10 1 10 9 0 18 -6 21 -15 7z"/>
<path d="M4040 3220 c0 -5 5 -10 11 -10 5 0 7 5 4 10 -3 6 -8 10 -11 10 -2 0
-4 -4 -4 -10z"/>
<path d="M4200 2900 c0 -5 5 -10 10 -10 6 0 10 5 10 10 0 6 -4 10 -10 10 -5 0
-10 -4 -10 -10z"/>
<path d="M4332 2798 c3 -7 13 -15 22 -16 12 -3 17 1 14 10 -3 7 -13 15 -22 16
-12 3 -17 -1 -14 -10z"/>
<path d="M8940 5121 c-58 -4 -238 -5 -400 -4 -337 3 -337 3 -377 -79 -21 -41
-23 -59 -23 -207 0 -142 3 -168 21 -210 13 -31 30 -53 47 -61 18 -9 96 -14
237 -16 241 -5 274 -13 305 -74 17 -34 18 -81 17 -906 -1 -865 0 -872 20 -907
34 -57 92 -71 297 -69 221 3 269 16 300 82 21 45 21 51 22 880 1 760 2 840 18
892 13 42 26 64 49 80 34 24 51 25 336 20 131 -3 161 9 199 76 20 37 22 53 22
215 0 197 -8 226 -75 267 -32 20 -45 21 -357 19 -178 -2 -348 -3 -378 -3 -30
-1 -82 2 -115 5 -33 4 -107 3 -165 0z m42 -93 c-9 -9 -15 -9 -24 0 -9 9 -7 12
12 12 19 0 21 -3 12 -12z m734 -167 c28 -7 43 -18 47 -31 10 -37 -24 -43 -263
-44 -187 -1 -235 -4 -282 -19 -99 -31 -90 57 -90 -967 1 -493 -2 -910 -7 -926
-11 -41 -51 -41 -62 -1 -4 16 -9 425 -10 910 l-2 882 -23 46 c-26 53 -78 82
-146 81 -24 -1 -126 -1 -228 -2 -202 0 -240 7 -240 45 0 21 6 24 61 30 33 4
171 4 307 1 136 -4 290 -3 342 1 139 12 547 7 596 -6z m-316 -201 c0 -5 -5
-10 -11 -10 -5 0 -7 5 -4 10 3 6 8 10 11 10 2 0 4 -4 4 -10z m-130 -233 c0
-20 -1 -20 -16 -5 -9 9 -13 21 -9 27 10 16 25 3 25 -22z m-387 -244 c5 -41 3
-53 -7 -53 -24 0 -36 52 -19 84 8 15 16 26 17 24 2 -1 6 -27 9 -55z m447 37
c0 -19 -11 -26 -23 -14 -8 8 3 34 14 34 5 0 9 -9 9 -20z m-390 -136 c0 -13 9
-33 20 -44 23 -23 25 -43 6 -59 -11 -9 -24 -8 -57 3 -24 9 -54 13 -66 10 l-22
-6 19 49 c27 73 100 107 100 47z m390 6 c0 -5 -4 -10 -10 -10 -5 0 -10 5 -10
10 0 6 5 10 10 10 6 0 10 -4 10 -10z m-25 -30 c3 -5 -2 -24 -11 -42 -9 -17
-20 -44 -24 -59 -7 -24 -5 -28 13 -31 15 -2 21 -9 19 -21 -2 -11 6 -21 23 -27
25 -10 33 -34 15 -45 -5 -3 -10 -20 -10 -36 0 -17 -4 -28 -9 -25 -5 4 -11 1
-13 -6 -8 -24 5 -59 33 -89 33 -35 36 -59 13 -94 -12 -18 -15 -42 -13 -92 l4
-67 -32 -9 c-51 -15 -83 11 -83 69 0 24 -7 61 -15 81 -20 47 -20 46 17 39 l32
-6 -29 30 c-25 26 -27 33 -17 55 6 14 16 25 22 25 5 0 10 7 10 15 0 8 -7 15
-15 15 -22 0 -29 45 -15 95 10 36 10 48 0 60 -9 10 -10 31 -6 68 5 42 13 57
39 79 35 30 43 33 52 18z m-385 -115 c0 -18 -31 -35 -64 -35 -33 0 -35 27 -3
40 35 14 67 12 67 -5z m-45 -75 c-3 -5 -10 -10 -16 -10 -5 0 -9 5 -9 10 0 6 7
10 16 10 8 0 12 -4 9 -10z m109 -135 c-7 -52 -9 -54 -95 -93 -12 -5 -20 61 -8
69 17 10 1 29 -24 29 -17 0 -18 3 -9 12 7 7 36 13 65 13 50 0 52 1 49 25 -2
22 -1 23 12 10 12 -12 14 -28 10 -65z m-70 -275 l7 -25 -26 28 c-14 16 -22 33
-19 39 9 13 30 -10 38 -42z m-31 -61 c3 -10 1 -19 -3 -19 -14 0 -41 31 -35 40
9 14 32 1 38 -21z m440 -26 c14 -8 7 -61 -9 -67 -13 -5 -13 -9 5 -32 29 -37
30 -114 1 -121 -27 -7 -25 -22 5 -33 14 -5 25 -16 25 -24 0 -17 -39 -48 -51
-40 -12 7 -21 -14 -14 -35 4 -14 14 -19 32 -18 39 3 51 -24 30 -69 -17 -35
-19 -36 -62 -31 -25 2 -45 2 -45 -2 0 -10 63 -35 83 -33 12 1 17 -4 16 -16 -1
-9 1 -34 5 -55 9 -42 0 -107 -15 -107 -6 0 -27 -14 -48 -30 -36 -30 -41 -31
-107 -25 -38 4 -82 11 -97 17 -20 8 -31 8 -40 -1 -16 -16 -78 -14 -121 4 -32
13 -36 20 -36 50 0 24 -5 35 -15 35 -8 0 -15 7 -15 15 0 9 -7 29 -15 44 -16
33 -4 98 21 108 11 4 12 9 3 19 -6 8 -17 14 -25 14 -26 0 -25 21 1 56 29 37
29 69 0 98 -8 8 -15 22 -15 31 0 17 9 17 59 4 8 -2 17 4 19 14 2 11 -3 17 -16
17 -14 0 -19 7 -18 22 1 21 6 23 59 23 61 0 81 -10 55 -29 -30 -22 -49 -63
-42 -90 8 -32 21 -34 26 -4 2 12 8 23 14 25 19 6 21 -51 3 -93 -16 -38 -16
-39 8 -65 23 -25 24 -29 12 -69 -11 -37 -11 -43 4 -52 9 -5 17 -18 17 -28 0
-11 6 -20 13 -20 7 0 29 -11 49 -25 39 -26 86 -32 119 -15 22 12 23 18 8 57
l-10 28 -29 -35 c-25 -31 -29 -33 -36 -17 -4 12 3 40 19 75 31 70 51 146 44
166 -4 9 3 22 16 31 18 13 20 18 9 33 -25 35 -25 45 -1 63 l24 18 -28 25 c-31
29 -33 43 -10 90 16 34 16 37 -2 56 -21 23 -21 23 25 43 31 13 69 13 93 0z
m-433 -58 c7 -8 25 -15 40 -15 15 0 33 -6 39 -14 10 -11 7 -17 -11 -30 -20
-14 -24 -14 -43 -1 -11 8 -29 20 -40 27 -18 10 -19 10 -6 -6 18 -21 8 -31 -18
-17 -20 11 -20 31 2 59 12 16 22 15 37 -3z m-40 -615 c0 -5 -5 -10 -11 -10 -5
0 -7 5 -4 10 3 6 8 10 11 10 2 0 4 -4 4 -10z"/>
<path d="M9255 3260 c-3 -5 1 -10 10 -10 9 0 13 5 10 10 -3 6 -8 10 -10 10 -2
0 -7 -4 -10 -10z"/>
<path d="M9291 3174 c0 -11 3 -14 6 -6 3 7 2 16 -1 19 -3 4 -6 -2 -5 -13z"/>
<path d="M8930 2855 c0 -8 5 -15 10 -15 6 0 10 7 10 15 0 8 -4 15 -10 15 -5 0
-10 -7 -10 -15z"/>
<path d="M9230 2689 c0 -5 5 -7 10 -4 6 3 10 8 10 11 0 2 -4 4 -10 4 -5 0 -10
-5 -10 -11z"/>
<path d="M11005 5121 c-60 -4 -238 -5 -395 -4 -331 3 -342 1 -378 -73 -20 -40
-22 -61 -22 -220 0 -153 2 -180 19 -212 31 -60 50 -65 290 -69 239 -4 255 -8
295 -71 l24 -38 -1 -875 c-1 -1005 -9 -922 92 -954 80 -26 372 -24 452 3 50
17 56 23 74 68 19 47 20 75 20 879 1 926 1 915 64 964 l35 26 208 -3 c241 -3
253 0 294 80 22 44 24 58 24 213 0 190 -10 225 -76 264 -36 21 -44 22 -358 20
-176 -2 -346 -3 -376 -3 -30 -1 -82 2 -115 5 -33 4 -109 3 -170 0z m47 -93
c-9 -9 -15 -9 -24 0 -9 9 -7 12 12 12 19 0 21 -3 12 -12z m734 -167 c28 -7 43
-18 47 -31 10 -39 -23 -44 -251 -42 -192 2 -220 0 -283 -19 -48 -15 -75 -29
-86 -46 -14 -21 -16 -116 -15 -916 1 -570 -2 -906 -9 -929 -12 -45 -44 -53
-58 -14 -6 13 -11 416 -12 912 l-2 889 -23 46 c-27 54 -79 82 -151 81 -209 -4
-416 0 -437 8 -18 7 -26 17 -26 34 0 22 5 25 61 31 33 4 171 4 307 1 136 -4
290 -3 342 1 139 12 547 7 596 -6z m-316 -205 c0 -3 -4 -8 -10 -11 -5 -3 -10
-1 -10 4 0 6 5 11 10 11 6 0 10 -2 10 -4z m-132 -219 c2 -10 -3 -17 -12 -17
-10 0 -16 9 -16 21 0 24 23 21 28 -4z m-390 -229 c0 -18 1 -42 3 -53 6 -30
-24 -25 -31 5 -6 21 12 80 25 80 2 0 3 -15 3 -32z m452 12 c0 -11 -4 -20 -9
-20 -14 0 -23 18 -16 30 10 17 25 11 25 -10z m-394 -134 c-4 -14 3 -29 20 -47
25 -26 25 -53 0 -62 -6 -3 -30 1 -51 9 -22 7 -50 11 -62 8 -28 -7 -28 -1 0 56
23 45 59 73 84 63 9 -4 13 -14 9 -27z m394 4 c0 -5 -4 -10 -10 -10 -5 0 -10 5
-10 10 0 6 5 10 10 10 6 0 10 -4 10 -10z m-25 -30 c3 -6 -3 -27 -14 -48 -30
-57 -33 -82 -10 -82 13 0 19 -7 19 -21 0 -12 8 -23 19 -26 27 -7 34 -31 17
-54 -8 -11 -12 -29 -9 -40 4 -13 0 -19 -11 -19 -9 0 -16 -5 -16 -10 0 -22 28
-76 49 -94 25 -23 27 -48 5 -82 -15 -23 -18 -55 -12 -128 3 -26 -1 -31 -29
-39 -25 -8 -38 -6 -58 7 -21 14 -25 24 -25 64 -1 26 -7 58 -15 72 -24 41 -19
53 17 46 l32 -6 -27 28 c-32 34 -34 55 -6 81 l21 19 -21 11 c-24 13 -27 44 -9
103 9 29 9 41 0 50 -7 7 -12 34 -12 60 0 41 5 54 33 83 33 35 51 42 62 25z
m-385 -115 c0 -18 -31 -35 -64 -35 -19 0 -26 5 -26 19 0 20 16 28 63 30 18 1
27 -4 27 -14z m-45 -75 c-3 -5 -10 -10 -16 -10 -5 0 -9 5 -9 10 0 6 7 10 16
10 8 0 12 -4 9 -10z m110 -108 c-3 -8 -5 -29 -5 -48 0 -25 -4 -34 -17 -34 -9
0 -31 -11 -50 -26 -31 -23 -39 -21 -34 10 1 4 -3 14 -9 21 -7 9 -6 16 5 25 19
16 10 30 -18 30 -17 0 -18 3 -9 12 7 7 36 13 65 13 50 0 52 1 49 25 -3 24 -2
24 13 5 8 -11 13 -26 10 -33z m-80 -283 c9 -17 14 -33 12 -35 -8 -8 -47 48
-41 57 8 14 12 11 29 -22z m-22 -80 c6 -22 -2 -24 -28 -6 -10 8 -15 19 -11 25
9 16 33 4 39 -19z m77 -3 c0 -3 -4 -8 -10 -11 -5 -3 -10 -1 -10 4 0 6 5 11 10
11 6 0 10 -2 10 -4z m363 -23 c14 -8 7 -61 -9 -67 -13 -5 -13 -10 5 -35 29
-40 29 -111 1 -118 -27 -7 -25 -21 5 -35 14 -6 25 -17 25 -24 0 -12 -35 -38
-52 -39 -14 0 -20 -14 -13 -34 5 -16 12 -20 30 -15 18 4 26 0 35 -17 11 -19 9
-28 -6 -57 -17 -32 -21 -34 -61 -29 -24 2 -43 1 -43 -3 0 -9 57 -33 80 -34 8
-1 15 -8 15 -16 0 -8 4 -30 9 -48 9 -40 -1 -112 -17 -112 -7 0 -31 -16 -55
-35 -37 -29 -47 -32 -68 -24 -14 5 -43 9 -64 9 -21 0 -51 5 -66 10 -19 8 -30
7 -41 -1 -19 -16 -70 -13 -116 6 -33 13 -37 19 -37 50 0 22 -5 35 -13 35 -17
0 -47 89 -40 123 3 16 14 33 23 39 15 10 16 14 5 25 -8 7 -18 13 -24 13 -22 0
-21 23 3 55 14 18 26 38 26 42 0 15 -25 63 -32 63 -5 0 -8 10 -8 21 0 21 6 22
59 8 8 -2 17 4 19 14 2 12 -3 17 -17 17 -15 0 -21 6 -21 24 0 22 3 23 60 22
59 -1 85 -16 56 -33 -26 -16 -47 -60 -40 -87 8 -32 21 -34 26 -4 2 12 9 23 16
26 17 5 16 -57 -2 -99 -13 -31 -12 -35 9 -61 21 -24 22 -31 12 -69 -9 -36 -8
-44 6 -54 10 -7 17 -20 17 -29 0 -9 6 -16 13 -16 7 0 29 -11 49 -25 39 -26 86
-32 119 -15 15 8 18 17 13 38 -11 45 -16 47 -45 12 -24 -28 -29 -31 -35 -16
-4 9 5 42 19 74 29 67 51 157 42 171 -3 6 3 16 15 23 26 16 25 29 -1 52 l-22
18 27 25 27 25 -26 19 c-29 24 -31 45 -8 93 16 34 16 37 -2 56 -21 23 -21 23
25 43 31 13 69 13 93 0z m-433 -59 c7 -8 23 -14 34 -12 46 6 65 -37 21 -48
-16 -4 -32 -1 -43 8 -9 8 -24 19 -32 23 -13 8 -13 7 -1 -8 18 -23 8 -32 -18
-17 -24 12 -24 38 -1 57 20 16 25 16 40 -3z m-45 -614 c3 -5 1 -10 -4 -10 -6
0 -11 5 -11 10 0 6 2 10 4 10 3 0 8 -4 11 -10z"/>
<path d="M11325 3260 c-3 -5 1 -10 10 -10 9 0 13 5 10 10 -3 6 -8 10 -10 10
-2 0 -7 -4 -10 -10z"/>
<path d="M11355 3181 c-3 -5 -1 -12 5 -16 5 -3 10 1 10 9 0 18 -6 21 -15 7z"/>
<path d="M11000 2855 c0 -8 5 -15 10 -15 6 0 10 7 10 15 0 8 -4 15 -10 15 -5
0 -10 -7 -10 -15z"/>
<path d="M11295 2690 c3 -5 8 -10 11 -10 2 0 4 5 4 10 0 6 -5 10 -11 10 -5 0
-7 -4 -4 -10z"/>
<path d="M15288 5125 c-3 -3 -78 -6 -168 -6 -121 1 -169 -3 -190 -14 -46 -24
-52 -80 -17 -153 30 -61 140 -244 182 -302 18 -25 63 -99 100 -165 38 -66 84
-140 103 -163 19 -24 54 -78 77 -120 23 -43 97 -163 163 -269 67 -105 128
-209 136 -230 39 -100 43 -157 44 -590 0 -285 4 -434 12 -457 19 -57 59 -66
308 -66 192 0 215 2 243 19 64 39 60 -4 74 821 3 223 5 228 282 682 125 205
241 392 259 415 50 65 252 406 271 456 21 56 12 112 -20 122 -12 4 -137 9
-277 11 -285 5 -312 1 -379 -58 -40 -35 -123 -166 -152 -241 -11 -27 -37 -75
-60 -108 -22 -33 -72 -123 -111 -202 -87 -174 -103 -197 -132 -197 -17 0 -33
17 -67 73 -56 88 -204 353 -307 547 -25 48 -63 101 -86 122 -46 42 -117 70
-167 67 -19 -1 -52 1 -74 5 -22 4 -43 4 -47 1z m166 -119 c14 -19 26 -38 26
-43 0 -4 -28 -8 -63 -8 -48 0 -62 3 -62 15 0 9 13 17 35 21 l35 6 -37 16 c-21
10 -38 19 -38 22 0 3 17 5 39 5 32 0 43 -6 65 -34z m-347 -8 c13 -12 23 -27
23 -35 0 -15 -26 -18 -35 -3 -3 6 -17 10 -31 10 -28 0 -31 12 -8 34 20 21 23
20 51 -6z m143 -42 c0 -8 -5 -18 -11 -22 -14 -8 -33 11 -25 25 10 16 36 13 36
-3z m90 -16 c12 -8 11 -10 -7 -10 -13 0 -23 5 -23 10 0 13 11 13 30 0z m-259
-22 c45 -13 51 -33 12 -41 -35 -7 -63 8 -63 33 0 23 1 24 51 8z m179 -18 c0
-5 -4 -10 -9 -10 -6 0 -13 5 -16 10 -3 6 1 10 9 10 9 0 16 -4 16 -10z m300
-10 c0 -5 -8 -10 -17 -10 -15 0 -16 2 -3 10 19 12 20 12 20 0z m-365 -20 c-3
-5 -10 -10 -16 -10 -5 0 -9 5 -9 10 0 6 7 10 16 10 8 0 12 -4 9 -10z m238 -88
c36 -48 75 -108 87 -132 11 -25 47 -85 79 -135 33 -49 79 -123 103 -163 24
-41 77 -126 119 -190 41 -64 90 -143 108 -175 30 -53 84 -107 107 -107 29 0
139 143 179 233 12 29 30 59 38 66 9 7 25 31 37 54 12 23 39 64 59 91 20 27
54 83 76 126 52 100 207 334 253 383 39 40 72 49 72 18 0 -25 -55 -128 -112
-211 -25 -36 -80 -126 -123 -200 -43 -74 -89 -148 -102 -164 -13 -16 -37 -55
-53 -86 -16 -31 -40 -70 -53 -86 -13 -16 -39 -60 -58 -97 -19 -38 -54 -94 -79
-125 -34 -43 -51 -78 -70 -142 -24 -84 -25 -91 -25 -460 -1 -337 -2 -378 -18
-407 -55 -103 -80 46 -65 387 7 154 2 252 -22 430 -11 91 -44 171 -99 243 -26
34 -64 93 -84 130 -21 38 -51 87 -67 110 -86 119 -396 631 -405 670 -7 25 -5
27 23 27 26 0 38 -11 95 -88z m-223 44 c36 -8 55 -17 55 -26 0 -11 -9 -14 -29
-12 -28 3 -50 -14 -40 -30 3 -4 18 -8 33 -8 26 0 30 -5 40 -45 6 -25 8 -57 5
-72 -7 -26 -7 -26 39 -20 l47 7 6 -40 c5 -32 12 -41 36 -49 16 -6 27 -15 24
-20 -11 -18 13 -61 34 -61 16 0 20 -7 20 -30 0 -18 6 -33 15 -36 8 -4 15 -17
15 -31 0 -16 7 -27 20 -30 24 -6 25 -11 4 -35 -16 -16 -15 -18 2 -24 34 -10
49 -21 52 -36 2 -12 -12 -15 -78 -16 -73 -2 -80 0 -80 17 0 11 -4 22 -9 26 -5
3 -12 18 -16 34 -4 21 -15 33 -36 40 -37 13 -39 47 -4 63 14 6 25 15 25 19 0
14 -42 21 -53 10 -18 -18 -45 -12 -53 12 -3 12 -15 35 -26 50 -14 20 -19 39
-15 65 4 33 0 41 -39 79 -27 26 -47 57 -54 83 -9 34 -16 42 -41 47 -38 7 -50
45 -23 74 13 15 25 18 44 13 14 -4 50 -12 80 -18z m404 4 c4 -5 -6 -16 -23
-24 -22 -12 -31 -24 -31 -42 0 -13 6 -26 13 -28 66 -18 72 -22 69 -49 -2 -23
1 -27 21 -27 13 0 32 -9 42 -20 15 -17 16 -24 7 -46 l-12 -25 -45 31 c-30 21
-45 38 -45 53 0 30 -11 44 -41 56 -22 8 -27 17 -33 66 -3 31 -4 60 -1 65 6 10
65 2 79 -10z m199 -427 c4 -20 4 -39 2 -41 -11 -11 -35 23 -35 49 0 43 26 37
33 -8z m812 17 c3 -5 1 -10 -4 -10 -6 0 -11 5 -11 10 0 6 2 10 4 10 3 0 8 -4
11 -10z m-375 -75 c0 -8 -7 -15 -15 -15 -16 0 -20 12 -8 23 11 12 23 8 23 -8z
m-370 -45 c0 -5 -4 -10 -10 -10 -5 0 -10 5 -10 10 0 6 5 10 10 10 6 0 10 -4
10 -10z m330 -40 c0 -5 -4 -10 -10 -10 -5 0 -10 5 -10 10 0 6 5 10 10 10 6 0
10 -4 10 -10z m-50 -24 c0 -3 -4 -8 -10 -11 -5 -3 -10 -1 -10 4 0 6 5 11 10
11 6 0 10 -2 10 -4z m-133 -51 l17 -36 -29 -24 c-17 -13 -33 -24 -36 -25 -4 0
-9 19 -12 43 -3 24 -9 51 -13 60 -5 14 0 17 25 17 26 0 34 -6 48 -35z m-521
-16 c4 -7 22 -9 49 -4 52 7 66 -7 37 -38 -19 -20 -19 -25 -7 -55 12 -28 18
-32 41 -26 22 6 25 4 22 -12 -2 -14 -13 -20 -44 -22 -38 -3 -41 -1 -57 35 -9
21 -17 47 -19 58 -2 13 -12 21 -31 23 -21 3 -27 9 -27 28 0 25 23 33 36 13z
m529 -79 c3 -5 1 -10 -4 -10 -6 0 -11 5 -11 10 0 6 2 10 4 10 3 0 8 -4 11 -10z
m351 -94 c8 -21 -14 -56 -34 -56 -13 0 -18 8 -17 28 0 39 39 60 51 28z m-662
-11 c-4 -8 -17 -15 -30 -15 -42 0 -25 27 18 29 12 1 15 -4 12 -14z m-62 -57
c-11 -11 -52 -2 -52 11 0 4 14 6 31 3 20 -3 27 -8 21 -14z m58 -28 c-28 -21
-12 -34 25 -20 45 17 55 13 55 -24 0 -18 6 -39 14 -45 8 -7 20 -35 26 -63 10
-38 19 -54 41 -67 22 -12 29 -23 29 -48 0 -49 -9 -63 -41 -63 -27 0 -29 -2
-19 -20 6 -12 22 -25 36 -30 20 -8 24 -16 24 -48 0 -21 7 -47 15 -58 11 -15
13 -37 8 -99 -3 -44 -9 -84 -14 -89 -4 -5 -2 -17 4 -28 10 -15 9 -21 -3 -28
-13 -9 -13 -12 2 -23 26 -20 24 -166 -3 -219 l-20 -39 20 -35 c12 -19 21 -51
21 -70 0 -32 12 -45 24 -25 4 5 23 12 45 16 25 4 50 18 71 40 27 28 32 42 37
96 2 35 9 74 15 86 9 18 8 27 -6 42 -13 14 -14 24 -7 45 7 17 7 35 0 53 -7 18
-6 30 1 37 5 5 10 26 10 46 0 40 14 60 42 60 10 0 18 5 18 10 0 6 -6 10 -13
10 -7 0 -23 20 -35 45 l-22 46 25 23 c30 28 32 59 5 84 -18 16 -20 27 -14 75
4 32 11 57 15 57 5 0 9 4 9 10 0 15 51 85 58 80 4 -3 7 -18 7 -35 0 -25 4 -30
25 -30 l25 0 0 -113 c0 -85 3 -115 14 -121 9 -6 12 -18 7 -37 -4 -16 -8 -40
-10 -54 -1 -14 -5 -37 -10 -51 -5 -17 -2 -39 9 -65 22 -52 12 -111 -21 -126
-29 -13 -31 -25 -5 -33 16 -5 21 -19 26 -81 4 -41 4 -92 0 -112 -4 -20 -8 -54
-9 -74 -2 -58 -13 -63 -97 -38 -65 20 -80 21 -126 10 -51 -11 -64 -22 -43 -35
17 -11 11 -33 -11 -40 -13 -4 -27 -1 -38 9 -16 15 -19 15 -36 -4 -24 -26 -65
-27 -65 -1 0 22 -42 41 -48 22 -3 -9 -7 -9 -18 0 -10 8 -14 36 -14 102 0 72
-3 92 -17 102 -15 11 -15 17 -3 59 9 32 20 51 34 56 19 7 19 9 4 15 -12 5 -18
18 -18 40 0 19 -5 37 -11 41 -6 3 -8 17 -5 30 4 14 2 33 -4 44 -14 27 1 115
19 115 23 0 23 20 1 40 -17 16 -20 30 -20 108 0 74 4 96 21 124 24 39 20 64
-10 56 -12 -3 -21 -1 -21 6 0 6 9 11 19 11 27 0 36 31 15 47 -10 7 -21 13 -26
13 -21 0 -5 19 19 22 l28 3 -27 25 c-15 14 -32 37 -37 53 -6 15 -22 32 -36 37
-14 5 -25 14 -25 20 0 17 40 51 52 44 7 -4 3 -13 -12 -24z m624 -32 c-3 -11 0
-31 7 -44 14 -26 8 -39 -14 -31 -18 7 -50 74 -44 91 4 9 15 12 31 9 21 -4 25
-10 20 -25z m-639 -58 c3 -5 -1 -10 -10 -10 -9 0 -13 5 -10 10 3 6 8 10 10 10
2 0 7 -4 10 -10z m586 -27 c5 -14 8 -32 5 -40 -7 -18 -36 -17 -36 2 0 8 -9 20
-20 27 -25 16 -25 25 -2 31 35 9 43 6 53 -20z m-211 -1088 c0 -8 -7 -15 -15
-15 -16 0 -20 12 -8 23 11 12 23 8 23 -8z m135 -10 c0 -14 -8 -21 -27 -23 -22
-3 -28 1 -28 17 0 10 6 22 13 24 23 10 42 2 42 -18z"/>
<path d="M15210 4680 c0 -5 5 -10 10 -10 6 0 10 5 10 10 0 6 -4 10 -10 10 -5
0 -10 -4 -10 -10z"/>
<path d="M15356 4461 c-4 -5 -2 -12 3 -15 5 -4 12 -2 15 3 4 5 2 12 -3 15 -5
4 -12 2 -15 -3z"/>
<path d="M15450 4280 c0 -5 5 -10 11 -10 5 0 7 5 4 10 -3 6 -8 10 -11 10 -2 0
-4 -4 -4 -10z"/>
<path d="M15985 4160 c4 -6 11 -8 16 -5 14 9 11 15 -7 15 -8 0 -12 -5 -9 -10z"/>
<path d="M15807 3443 c-12 -11 -8 -23 7 -23 8 0 16 7 20 15 5 15 -14 21 -27 8z"/>
<path d="M15897 2733 c-13 -12 -7 -23 13 -23 11 0 20 7 20 15 0 15 -21 21 -33
8z"/>
</g>
</svg>
