<?xml version="1.0" standalone="no"?>
<!DOCTYPE svg PUBLIC "-//W3C//DTD SVG 20010904//EN"
 "http://www.w3.org/TR/2001/REC-SVG-20010904/DTD/svg10.dtd">
<svg version="1.0" xmlns="http://www.w3.org/2000/svg"
 width="688.000000pt" height="687.000000pt" viewBox="0 0 688.000000 687.000000"
 preserveAspectRatio="xMidYMid meet">
<metadata>
Created by potrace 1.16, written by Peter Selinger 2001-2019
</metadata>
<g transform="translate(0.000000,687.000000) scale(0.100000,-0.100000)"
fill="#000000" stroke="none">
<path d="M918 6850 c-108 -23 -143 -33 -243 -77 -237 -103 -468 -329 -574
-563 -37 -82 -77 -216 -91 -300 -6 -43 -10 -869 -10 -2481 0 -2661 -4 -2481
61 -2668 93 -270 296 -504 551 -636 103 -54 235 -98 338 -114 56 -9 697 -11
2525 -9 l2450 3 97 27 c376 106 665 380 791 749 60 173 57 45 57 2655 0 2607
3 2458 -56 2646 -124 394 -477 701 -888 773 -78 13 -372 15 -2505 14 -2303 0
-2420 -1 -2503 -19z m2775 -899 c82 -32 177 -123 219 -209 31 -63 33 -72 33
-177 0 -104 -2 -114 -33 -177 -21 -42 -51 -83 -82 -111 l-50 -45 63 -64 c47
-46 69 -78 85 -121 22 -57 22 -64 22 -782 l0 -724 -26 -20 c-34 -26 -64 -27
-97 -1 l-26 21 -3 707 -3 707 -28 57 c-34 69 -89 113 -161 128 -29 6 -137 9
-251 8 l-200 -3 -3 -802 -2 -802 -26 -20 c-34 -27 -64 -27 -98 0 l-26 20 0
1198 c0 1128 1 1199 18 1213 9 9 24 18 32 21 8 4 143 5 300 4 271 -3 288 -4
343 -26z m-168 -1117 l25 -27 0 -1168 0 -1169 159 0 c88 0 167 -3 176 -6 18
-7 45 -55 45 -79 0 -9 -13 -30 -29 -46 l-29 -29 -397 0 c-328 0 -401 3 -424
15 -46 23 -55 75 -22 116 18 23 26 24 188 29 l168 5 5 1173 5 1174 24 19 c34
27 77 24 106 -7z m-1145 -234 l0 -50 -390 0 -390 0 0 50 0 50 390 0 390 0 0
-50z m3010 0 l0 -50 -395 0 -395 0 0 50 0 50 395 0 395 0 0 -50z m-3010 -245
l0 -55 -390 0 -390 0 0 55 0 55 390 0 390 0 0 -55z m3008 3 l-3 -53 -392 -3
-393 -2 0 55 0 55 396 0 395 0 -3 -52z m-2982 -2614 c111 -33 202 -103 253
-193 27 -49 51 -156 51 -231 0 -191 -95 -339 -260 -407 -248 -102 -522 4 -614
237 -11 26 -20 85 -23 140 -10 174 40 294 162 386 123 94 270 118 431 68z
m2269 14 c19 -8 39 -38 71 -105 24 -51 44 -95 44 -97 0 -3 25 -58 56 -123 30
-65 66 -140 79 -168 12 -27 46 -99 75 -160 64 -134 81 -181 74 -200 -5 -12
-26 -15 -95 -15 -99 0 -133 13 -143 55 -11 44 -51 55 -201 55 -128 0 -137 -1
-155 -22 -11 -13 -33 -38 -50 -56 l-29 -33 -93 3 c-81 3 -93 5 -96 22 -2 10
56 147 128 305 228 492 247 531 272 541 31 12 33 12 63 -2z m-3240 -12 c70
-18 93 -31 148 -85 112 -108 113 -312 1 -432 -13 -14 -24 -33 -24 -44 0 -15
63 -125 137 -242 13 -19 12 -24 -5 -41 -18 -18 -31 -20 -113 -16 -58 2 -100 9
-115 18 -12 9 -46 57 -75 107 -29 51 -61 101 -71 111 -21 21 -87 25 -106 6 -8
-8 -12 -47 -12 -109 0 -112 -9 -128 -68 -130 -73 -3 -127 3 -140 15 -9 9 -14
106 -18 403 -6 396 -4 423 30 445 20 14 377 9 431 -6z m1995 -6 c15 -15 20
-33 20 -79 0 -87 -15 -100 -115 -103 -73 -3 -80 -5 -92 -28 -9 -18 -13 -102
-13 -317 0 -252 -2 -294 -16 -307 -19 -20 -173 -23 -192 -4 -9 9 -12 93 -12
317 0 362 7 341 -109 341 -42 0 -83 4 -90 9 -23 15 -28 134 -7 166 l16 25 295
0 c282 0 296 -1 315 -20z m710 0 c15 -15 20 -33 20 -79 0 -87 -15 -100 -115
-103 -73 -3 -80 -5 -92 -28 -9 -18 -13 -102 -13 -317 0 -252 -2 -294 -16 -307
-11 -12 -36 -16 -90 -16 -124 0 -114 -28 -114 327 0 365 7 343 -111 343 -73 0
-80 2 -95 25 -19 30 -16 134 5 159 12 14 51 16 307 16 281 0 295 -1 314 -20z
m1200 2 c12 -9 52 -71 89 -137 37 -65 72 -120 77 -122 6 -2 21 18 35 44 126
240 120 233 239 233 162 0 164 16 -33 -298 -26 -42 -65 -106 -85 -142 l-37
-65 -5 -173 c-4 -139 -8 -175 -20 -182 -20 -13 -187 -13 -195 0 -3 5 -7 85 -9
177 -2 96 -8 179 -14 193 -11 23 -35 63 -189 309 -82 130 -89 146 -73 166 19
23 190 21 220 -3z"/>
<path d="M3157 5813 c-4 -3 -7 -118 -7 -255 l0 -248 233 0 232 0 52 30 c82 47
124 121 124 220 1 106 -53 192 -146 236 -48 23 -60 24 -266 24 -119 0 -219 -3
-222 -7z"/>
<path d="M2193 1670 c-75 -15 -141 -51 -188 -101 -54 -57 -81 -113 -90 -184
-8 -62 7 -181 30 -229 27 -56 99 -124 163 -154 49 -23 70 -27 152 -26 76 0
104 4 143 22 169 77 241 252 185 447 -22 76 -85 152 -156 189 -61 32 -174 49
-239 36z m209 -51 c73 -37 114 -76 144 -136 26 -53 29 -68 29 -163 0 -97 -2
-109 -29 -157 -60 -109 -132 -154 -261 -161 -122 -6 -185 15 -256 87 -75 76
-93 131 -87 251 7 119 35 180 110 238 31 24 78 49 105 57 68 20 191 12 245
-16z"/>
<path d="M2164 1531 c-22 -10 -55 -36 -72 -57 -88 -106 -60 -283 56 -351 91
-54 225 -30 287 51 56 74 57 207 3 291 -49 76 -182 108 -274 66z"/>
<path d="M4585 1533 c-27 -59 -77 -168 -112 -241 -34 -73 -63 -135 -63 -137 0
-3 -16 -39 -36 -81 -36 -77 -42 -127 -8 -65 11 19 29 45 41 58 22 23 26 23
228 23 234 0 250 -4 280 -69 17 -39 35 -54 35 -30 0 5 -24 60 -53 122 -30 62
-69 146 -87 187 -58 133 -143 315 -153 328 -5 6 -13 12 -17 12 -4 0 -29 -48
-55 -107z m170 -173 c52 -113 95 -212 95 -221 0 -26 -20 -29 -174 -29 -164 0
-233 7 -240 25 -2 7 25 75 61 151 36 77 80 172 99 212 23 52 38 73 49 70 10
-2 53 -84 110 -208z"/>
<path d="M4601 1295 c-17 -42 -29 -80 -26 -85 10 -15 132 -12 138 3 7 18 -53
157 -68 157 -7 0 -26 -34 -44 -75z"/>
<path d="M1086 1649 c-14 -20 -16 -65 -16 -341 0 -174 4 -319 9 -322 13 -8 21
46 21 138 0 51 5 87 12 94 8 8 53 12 135 12 104 0 126 -3 141 -18 9 -9 46 -65
81 -125 35 -59 71 -107 78 -107 12 0 11 7 -5 33 -83 140 -113 199 -110 214 2
9 21 29 43 44 60 41 90 100 90 179 0 85 -31 142 -99 185 -49 30 -51 30 -207
33 -154 4 -157 3 -173 -19z m332 -20 c45 -15 92 -56 108 -96 20 -47 18 -132
-5 -173 -10 -19 -35 -48 -55 -65 -38 -30 -38 -30 -189 -33 -136 -4 -152 -2
-164 14 -19 26 -19 337 0 356 16 16 254 14 305 -3z"/>
<path d="M1217 1546 c-13 -14 -17 -35 -17 -94 0 -42 4 -83 8 -89 11 -18 140
-21 178 -5 57 24 73 113 31 165 -20 25 -30 28 -102 34 -68 5 -84 3 -98 -11z"/>
<path d="M1563 1316 c-35 -19 -63 -48 -63 -63 0 -7 -6 -13 -14 -13 -31 0 -25
-79 6 -88 12 -3 17 -10 13 -22 -3 -9 3 -24 14 -34 11 -10 22 -28 25 -42 4 -13
14 -24 22 -24 16 0 16 -22 3 -69 -2 -7 2 -16 9 -18 6 -3 12 3 12 11 0 9 5 25
12 36 10 15 9 22 -5 38 -9 10 -17 24 -17 30 0 7 -4 12 -10 12 -5 0 -10 9 -10
19 0 11 -4 23 -10 26 -5 3 -10 13 -10 22 0 9 -7 24 -15 33 -13 14 -11 20 13
55 15 22 30 42 35 43 4 2 7 8 7 14 0 7 -5 7 -13 -1 -8 -6 -17 -8 -20 -4 -14
13 -6 23 17 23 13 0 26 7 30 15 6 18 -1 18 -31 1z"/>
<path d="M1315 1200 c-3 -5 -25 -7 -49 -6 -48 3 -56 -18 -9 -22 46 -4 123 -67
123 -102 0 -9 9 -25 19 -34 11 -10 22 -28 25 -42 6 -22 72 -62 84 -50 10 11
-8 35 -23 30 -8 -3 -15 -2 -15 4 0 6 5 12 12 14 14 5 -17 66 -44 86 -9 7 -16
20 -15 30 2 30 -33 72 -60 72 -13 0 -22 4 -19 9 3 5 -1 11 -9 15 -8 3 -17 1
-20 -4z"/>
<path d="M2890 1661 c0 -16 29 -21 105 -16 121 8 115 27 115 -350 0 -203 4
-315 10 -315 6 0 10 113 10 320 l0 319 23 13 c12 7 58 13 102 14 99 2 98 2 90
14 -8 13 -455 14 -455 1z"/>
<path d="M3167 1153 c-3 -5 -4 -30 -2 -58 2 -47 -3 -76 -20 -117 -5 -13 -2
-18 9 -18 9 0 16 -4 16 -10 0 -5 -9 -10 -21 -10 -38 0 -56 18 -63 62 -4 23
-11 47 -17 54 -7 8 -7 14 1 19 15 9 12 25 -5 25 -8 0 -15 -7 -15 -15 0 -8 -3
-15 -7 -15 -13 0 -8 -113 5 -137 9 -17 23 -22 68 -25 83 -5 118 28 77 74 -15
17 -15 18 0 18 20 0 23 26 5 33 -10 3 -10 7 1 20 9 12 10 17 2 17 -8 0 -9 5
-3 16 19 34 -12 100 -31 67z"/>
<path d="M3600 1661 c0 -14 40 -20 112 -15 113 7 108 24 108 -351 0 -203 4
-315 10 -315 6 0 10 113 10 320 l0 319 23 13 c12 7 58 13 102 14 97 2 95 2 95
14 0 6 -83 10 -230 10 -128 0 -230 -4 -230 -9z"/>
<path d="M3877 1153 c-2 -5 -3 -30 -2 -58 1 -27 -4 -69 -11 -92 -10 -36 -10
-43 2 -43 8 0 14 -4 14 -10 0 -5 -9 -10 -21 -10 -38 0 -56 18 -63 62 -4 23
-11 47 -17 54 -7 8 -7 14 1 19 15 9 12 25 -5 25 -8 0 -15 -7 -15 -15 0 -8 -3
-15 -8 -15 -11 0 -7 -113 6 -137 9 -17 23 -22 68 -25 83 -5 118 28 77 74 -15
17 -15 18 0 18 19 0 23 26 5 32 -7 3 -8 9 -3 18 5 8 9 25 8 37 -1 13 -1 34 -2
48 -1 23 -24 35 -34 18z"/>
<path d="M5263 1656 c6 -15 129 -214 183 -296 40 -62 46 -90 45 -225 0 -120
10 -184 23 -145 3 8 7 80 9 160 l3 145 112 180 c62 99 112 183 112 187 0 17
-16 6 -36 -25 -43 -64 -130 -203 -157 -248 -29 -51 -50 -65 -68 -46 -6 7 -55
81 -108 166 -53 85 -103 157 -110 159 -10 3 -12 0 -8 -12z"/>
<path d="M5414 1298 c8 -18 11 -42 9 -53 -5 -23 -6 -37 -4 -80 0 -16 0 -39 0
-50 -1 -11 -1 -33 -1 -50 1 -16 1 -50 2 -75 0 -42 17 -70 43 -70 4 0 5 6 1 13
-6 10 -4 10 7 0 18 -17 29 -16 29 2 0 8 -7 15 -15 15 -8 0 -15 6 -16 13 0 6
-1 63 -2 125 -2 88 -5 115 -17 122 -13 9 -13 11 -1 19 12 8 11 17 -8 55 -24
52 -47 63 -27 14z"/>
<path d="M5548 1245 c-9 -20 -9 -31 0 -45 6 -11 8 -21 4 -24 -4 -2 -9 -46 -10
-97 -2 -52 -8 -99 -14 -106 -13 -17 -11 -19 30 -28 l33 -7 0 64 c-1 34 -1 103
-1 151 0 65 -4 92 -15 103 -13 14 -16 12 -27 -11z"/>
</g>
</svg>
