<?xml version="1.0" standalone="no"?>
<!DOCTYPE svg PUBLIC "-//W3C//DTD SVG 20010904//EN"
 "http://www.w3.org/TR/2001/REC-SVG-20010904/DTD/svg10.dtd">
<svg version="1.0" xmlns="http://www.w3.org/2000/svg"
 width="2000.000000pt" height="2000.000000pt" viewBox="0 0 2000.000000 2000.000000"
 preserveAspectRatio="xMidYMid meet">

<g transform="translate(0.000000,2000.000000) scale(0.100000,-0.100000)"
fill="#000000" stroke="none">
<path d="M0 10000 l0 -10000 10000 0 10000 0 0 10000 0 10000 -10000 0 -10000
0 0 -10000z m10330 7387 c201 -49 343 -129 486 -273 223 -224 330 -526 296
-832 -31 -282 -160 -509 -379 -670 -73 -53 -77 -40 37 -122 82 -59 197 -190
244 -279 46 -87 82 -208 96 -314 14 -117 14 -3418 -1 -3472 -13 -48 -61 -101
-109 -122 -84 -36 -198 7 -243 91 l-22 41 -5 1725 c-4 1253 -9 1736 -17 1764
-60 206 -242 378 -445 422 -48 10 -185 13 -595 14 l-533 0 0 -1966 0 -1966
-22 -39 c-61 -108 -210 -132 -297 -47 -66 65 -61 -188 -61 3012 l0 2912 29 46
c33 52 65 77 114 89 17 4 331 6 697 5 568 -3 674 -5 730 -19z m-347 -2778 c21
-6 57 -27 79 -47 78 -70 68 206 104 -2932 18 -1554 33 -2925 33 -3048 l1 -222
420 0 c399 1 421 0 458 -19 57 -29 98 -81 111 -140 17 -79 2 -131 -53 -189
-56 -60 -76 -66 -241 -69 -519 -11 -1909 -20 -1939 -13 -85 19 -166 115 -166
195 0 73 46 150 114 190 41 24 42 24 459 31 l417 7 0 146 c0 80 -14 1325 -30
2766 -36 3199 -36 3183 -11 3233 26 50 70 91 117 107 48 17 77 18 127 4z
m-2843 -839 l0 -130 -970 0 -970 0 0 130 0 130 970 0 970 0 0 -130z m7420 0
l0 -130 -975 0 -975 0 0 130 0 130 975 0 975 0 0 -130z m-7420 -600 l0 -130
-970 0 -970 0 0 130 0 130 970 0 970 0 0 -130z m7420 0 l0 -130 -972 2 -973 3
-3 128 -3 127 976 0 975 0 0 -130z m-1554 -6536 c18 -7 43 -27 58 -45 25 -30
136 -248 151 -299 4 -14 45 -99 89 -190 45 -91 98 -201 116 -245 19 -44 46
-100 60 -125 40 -71 87 -173 94 -200 3 -14 20 -50 38 -80 19 -30 58 -111 87
-180 30 -69 78 -172 107 -229 30 -58 54 -111 54 -118 0 -7 8 -27 19 -46 41
-73 91 -175 115 -236 32 -79 36 -175 9 -189 -10 -6 -105 -12 -212 -15 -160 -5
-202 -3 -240 10 -67 23 -115 65 -130 113 -15 50 -60 102 -107 125 -31 14 -76
16 -381 15 -273 0 -351 -4 -372 -14 -37 -20 -85 -74 -109 -122 -12 -23 -33
-56 -48 -73 -47 -56 -75 -62 -317 -64 -206 -2 -219 -1 -233 17 -27 37 -17 109
26 201 22 47 40 90 40 97 0 8 11 29 23 48 13 19 34 62 46 95 13 33 35 85 50
115 64 128 91 186 91 196 0 12 33 88 108 244 124 263 181 387 242 530 18 41
52 116 76 165 24 50 44 93 44 97 0 8 34 85 84 193 19 39 39 84 45 101 19 48
75 97 134 115 53 17 88 15 143 -7z m1549 -7 c72 -27 95 -55 190 -232 21 -38
62 -113 93 -165 170 -294 170 -293 197 -270 7 6 43 72 80 148 37 75 80 155 95
177 15 22 43 74 62 115 19 41 51 100 70 130 76 118 90 122 401 118 135 -2 249
-6 252 -10 4 -4 10 -27 12 -51 4 -34 -1 -55 -22 -98 -37 -73 -203 -349 -224
-374 -26 -29 -391 -642 -414 -695 -35 -77 -38 -114 -43 -500 -2 -215 -9 -389
-15 -407 -19 -59 -36 -63 -266 -65 -153 -1 -214 1 -231 11 -48 26 -52 54 -56
448 -3 203 -9 391 -15 420 -15 76 -30 106 -116 238 -115 177 -175 274 -175
283 0 5 -22 38 -48 73 -26 35 -74 109 -106 164 -32 55 -69 114 -82 131 -33 44
-147 233 -168 277 -23 49 -14 109 19 131 40 26 443 29 510 3z m-3535 -8 c30
-1 193 -1 362 0 344 3 341 3 379 -70 16 -33 19 -59 19 -189 0 -141 -1 -153
-24 -188 -44 -70 -54 -73 -254 -70 -158 2 -180 0 -205 -16 -15 -10 -30 -30
-33 -45 -3 -14 -10 -38 -16 -54 -7 -18 -8 -178 -4 -495 4 -257 7 -577 7 -712
0 -370 6 -362 -291 -364 -159 -1 -189 1 -217 17 -69 37 -68 29 -69 456 -3
1189 -2 1166 -62 1190 -15 6 -110 12 -212 14 -237 4 -250 10 -269 123 -14 79
-4 288 16 331 28 61 28 61 384 64 178 2 338 6 354 10 17 4 41 5 55 3 14 -2 50
-4 80 -5z m-3658 -13 c24 -7 75 -23 113 -34 211 -65 261 -84 337 -130 85 -52
201 -156 278 -251 48 -57 117 -189 139 -261 7 -25 17 -54 21 -65 39 -100 52
-221 48 -420 -5 -241 -33 -362 -115 -506 -27 -46 -55 -97 -63 -114 -8 -16 -69
-86 -135 -154 -95 -98 -132 -129 -180 -151 -33 -15 -96 -44 -140 -65 -172 -80
-232 -92 -500 -101 l-170 -6 -159 46 c-204 60 -361 139 -454 230 -85 82 -228
272 -253 338 -12 29 -27 67 -35 83 -51 118 -56 151 -61 408 -5 273 11 373 88
554 21 50 106 179 162 246 72 85 322 258 403 278 27 7 81 25 119 40 83 33 187
46 377 48 91 1 152 -4 180 -13z m2636 -13 c60 -30 72 -71 72 -243 0 -129 -3
-156 -19 -188 -34 -66 -56 -72 -253 -71 -195 2 -232 -7 -244 -59 -3 -15 -11
-42 -16 -61 -7 -23 -9 -120 -4 -285 4 -138 7 -458 7 -711 1 -520 1 -523 -69
-552 -45 -19 -254 -33 -342 -24 -76 8 -115 26 -143 63 -19 25 -20 50 -24 779
-5 811 -3 787 -57 823 -21 13 -55 16 -210 16 -238 0 -256 8 -275 126 -13 84
-3 280 16 327 29 67 19 66 541 68 258 2 528 5 598 8 214 10 384 3 422 -16z
m-5583 -24 c33 -1 193 -1 355 0 162 0 309 -4 325 -9 17 -5 68 -18 115 -29 146
-36 211 -75 332 -198 116 -119 123 -131 163 -248 59 -175 71 -328 36 -486 -22
-104 -103 -261 -173 -335 -50 -54 -78 -106 -78 -150 0 -25 74 -151 216 -368
33 -49 66 -106 75 -127 9 -20 22 -40 28 -43 6 -4 22 -29 35 -55 22 -41 23 -51
13 -84 -21 -66 -48 -72 -297 -69 -148 2 -231 7 -265 17 -58 16 -122 73 -150
131 -10 22 -37 72 -61 111 -24 40 -44 76 -44 79 0 4 -15 27 -33 53 -18 25 -50
76 -70 113 -44 80 -85 113 -147 121 -25 3 -63 9 -85 12 -35 6 -45 2 -75 -23
-32 -27 -35 -34 -41 -108 -4 -43 -5 -142 -2 -219 5 -113 3 -151 -11 -197 -20
-71 -39 -81 -181 -94 -224 -21 -333 -3 -359 60 -24 57 -26 116 -31 691 -2 314
-7 737 -11 940 -7 365 -7 371 15 420 12 28 32 57 44 65 27 17 195 39 257 33
25 -2 72 -4 105 -4z m1964 -3176 c9 -19 -6 -153 -33 -281 -21 -99 -21 -101 17
-64 78 76 115 15 86 -142 -9 -52 -8 -59 8 -71 17 -14 17 -16 -3 -52 -26 -45
-60 -56 -69 -21 -3 13 1 66 10 118 20 124 20 146 0 130 -8 -6 -37 -48 -65 -91
-28 -44 -57 -78 -63 -76 -24 8 -12 164 26 361 21 104 40 192 43 197 9 15 33
10 43 -8z m6440 0 c9 -19 -6 -153 -33 -281 -21 -99 -21 -101 17 -64 78 76 115
15 86 -142 -9 -52 -8 -59 8 -71 17 -14 17 -16 -3 -52 -26 -45 -60 -56 -69 -21
-3 13 1 66 10 118 20 124 20 146 0 130 -8 -6 -37 -48 -65 -91 -28 -44 -57 -78
-63 -76 -30 9 -15 165 39 415 4 21 1 19 -46 -14 -29 -20 -57 -46 -65 -58 -7
-12 -20 -77 -29 -145 -15 -115 -15 -125 1 -136 15 -11 15 -18 5 -52 -13 -43
-45 -83 -68 -83 -34 0 -38 44 -20 203 10 83 18 161 19 172 2 16 -6 21 -33 25
-47 7 -46 31 3 45 44 13 57 28 57 72 0 53 20 84 49 81 24 -3 26 -7 26 -48 0
-48 0 -48 60 -36 44 10 55 20 55 53 0 59 38 95 59 56z m-6653 -18 c10 -24 -5
-81 -26 -107 l-20 -23 -6 23 c-4 13 -10 22 -15 20 -14 -5 -157 -133 -153 -137
2 -2 31 2 65 9 146 31 193 12 192 -78 0 -31 -10 -67 -28 -101 -29 -57 -144
-180 -193 -205 -34 -18 -82 -24 -100 -12 -14 8 -16 104 -3 125 12 19 31 4 31
-25 0 -31 16 -30 71 5 77 49 179 168 179 208 0 20 -79 16 -178 -8 -105 -25
-132 -18 -132 34 0 40 33 89 111 163 114 109 190 149 205 109z m1762 3 c7 -9
2 -58 -14 -158 -13 -80 -23 -152 -23 -160 0 -8 14 13 30 48 24 54 32 63 51 60
20 -3 23 -9 22 -50 0 -38 -8 -58 -39 -104 -37 -53 -39 -61 -37 -118 2 -38 9
-68 20 -79 14 -16 14 -19 0 -33 -14 -15 -18 -14 -37 5 -16 16 -21 33 -21 72 0
70 -17 59 -45 -29 -35 -109 -57 -127 -70 -54 -4 26 9 110 45 282 28 135 53
259 56 275 7 35 21 55 39 55 7 0 17 -6 23 -12z m5626 -11 c21 -15 26 -81 8
-99 -10 -10 -17 -10 -32 0 -23 14 -34 -1 -45 -61 -9 -48 3 -48 66 -1 43 31 49
33 49 16 0 -21 -66 -86 -105 -104 -30 -14 -29 -8 -60 -203 -15 -88 -31 -173
-37 -188 -15 -38 -45 -54 -66 -34 -13 14 -12 34 17 194 18 98 35 185 37 194 3
11 -6 21 -26 29 -39 16 -38 27 2 38 30 8 34 14 53 83 23 82 43 116 77 136 29
16 40 16 62 0z m446 -48 c0 -49 1 -51 23 -44 46 14 77 17 77 7 0 -6 -24 -27
-54 -47 -64 -43 -70 -56 -86 -208 -11 -94 -10 -110 3 -125 13 -15 13 -22 2
-55 -16 -47 -42 -77 -66 -77 -36 0 -39 60 -14 255 19 156 21 145 -21 145 -28
0 -35 4 -32 17 2 9 17 21 35 27 45 15 53 27 59 82 7 58 18 74 50 74 22 0 24
-4 24 -51z m-4985 18 c3 -12 -10 -107 -29 -210 -41 -214 -41 -217 -21 -217 36
0 -1 -96 -48 -124 -15 -9 -21 -7 -34 9 -11 16 -14 36 -9 92 6 77 70 413 86
451 13 29 48 29 55 -1z m2353 -13 c3 -26 -43 -297 -65 -391 -4 -16 -1 -23 10
-23 9 0 19 -4 22 -10 10 -16 -31 -97 -56 -110 -20 -11 -25 -10 -41 10 -16 19
-18 33 -13 79 12 98 85 454 97 468 19 23 43 11 46 -23z m-683 -14 c6 -18 -18
-151 -36 -197 -5 -13 -9 -31 -9 -40 0 -14 3 -14 25 1 78 51 107 -19 65 -157
-31 -99 -101 -163 -113 -101 -3 19 2 29 20 41 13 9 33 33 44 54 24 48 37 129
20 129 -18 0 -70 -90 -92 -160 -27 -89 -57 -121 -78 -82 -9 18 23 250 48 337
6 22 11 62 11 88 0 26 7 61 15 77 22 42 68 48 80 10z m-1139 -4 c6 -16 -24
-164 -61 -301 -13 -49 -31 -119 -40 -155 -19 -77 -38 -110 -65 -110 -18 0 -20
7 -20 55 0 51 -10 69 -25 45 -3 -5 -17 -10 -29 -10 -39 0 -51 46 -37 132 19
114 56 157 106 124 24 -16 24 -15 45 42 71 192 71 192 96 192 14 0 27 -6 30
-14z m2138 5 c12 -18 -105 -509 -130 -548 -18 -28 -50 -30 -59 -3 -3 10 -3 36
1 56 6 34 5 37 -12 29 -69 -29 -89 -7 -82 90 10 118 63 191 109 149 10 -9 21
-15 23 -13 3 2 20 47 39 99 57 155 54 150 81 150 14 0 27 -4 30 -9z m-4574
-109 c0 -11 -8 -27 -19 -36 -17 -16 -20 -16 -35 -1 -12 12 -13 21 -6 36 14 25
60 26 60 1z m4085 8 c9 -14 -23 -62 -37 -58 -19 7 -32 34 -25 52 7 18 52 22
62 6z m625 -8 c0 -11 -8 -27 -19 -36 -17 -16 -20 -16 -35 -1 -12 12 -13 21 -6
36 14 25 60 26 60 1z m-2993 -124 c-8 -86 -58 -242 -89 -275 -49 -52 -91 -14
-96 88 -2 38 -8 69 -12 69 -4 0 -20 -19 -35 -42 -59 -91 -87 -107 -102 -60
-15 43 -1 203 18 215 29 18 49 1 49 -43 0 -22 4 -40 9 -40 5 0 23 18 41 39 17
22 40 43 51 46 37 12 44 -8 32 -87 -12 -81 -7 -138 12 -138 7 0 28 53 50 128
48 162 52 172 66 172 9 0 10 -20 6 -72z m-1832 39 c11 -43 -22 -97 -40 -67 -5
8 -11 7 -21 -1 -21 -18 -78 -124 -104 -197 -23 -65 -52 -94 -73 -73 -13 13 6
230 24 277 19 51 42 56 67 14 l18 -29 37 49 c42 57 82 68 92 27z m3153 -6 c2
-12 1 -34 -3 -48 -5 -21 -10 -24 -30 -19 -14 4 -25 4 -25 2 0 -2 -3 -11 -6
-19 -4 -11 5 -17 38 -22 58 -10 75 -20 82 -50 16 -63 -89 -196 -181 -231 -53
-20 -76 -12 -81 30 -3 21 7 37 41 72 24 24 49 44 56 44 16 0 13 -27 -6 -57
-17 -26 -17 -26 4 -15 30 16 93 92 100 120 7 29 -9 42 -55 42 -35 0 -72 15
-72 29 0 4 21 40 46 80 37 57 51 71 68 69 13 -2 22 -12 24 -27z m4406 -19 c-1
-50 -8 -60 -34 -44 -17 11 -23 7 -45 -27 -15 -21 -45 -83 -69 -137 -43 -101
-66 -128 -88 -106 -19 19 15 280 40 304 23 23 48 15 59 -19 l9 -25 29 38 c38
51 56 64 80 61 17 -2 20 -9 19 -45z m-5346 -5 c29 -23 7 -90 -54 -157 -24 -26
-34 -47 -32 -62 3 -20 8 -23 41 -20 31 3 37 1 37 -16 0 -27 -46 -62 -81 -62
-34 0 -68 31 -70 63 -8 130 37 249 101 269 17 6 39 0 58 -15z m750 0 c29 -23
7 -90 -54 -157 -24 -26 -34 -47 -32 -62 3 -20 8 -23 41 -20 31 3 37 1 37 -16
0 -27 -46 -62 -81 -62 -34 0 -68 31 -70 63 -8 130 37 249 101 269 17 6 39 0
58 -15z m3160 0 c29 -23 7 -90 -54 -157 -24 -26 -34 -47 -32 -62 3 -20 8 -23
41 -20 31 3 37 1 37 -16 0 -27 -46 -62 -81 -62 -34 0 -68 31 -70 63 -8 130 37
249 101 269 17 6 39 0 58 -15z m1599 0 c20 -33 -2 -89 -64 -160 -33 -37 -43
-76 -20 -78 6 0 26 -2 42 -2 24 -2 29 -6 27 -22 -10 -61 -130 -71 -146 -12
-26 99 30 272 94 287 29 7 58 2 67 -13z m-7147 -24 c0 -49 -76 -336 -103 -390
-41 -79 -96 -133 -138 -133 -40 0 -52 7 -68 38 -14 26 -8 29 49 34 30 3 39 10
67 57 32 54 83 191 83 224 0 11 -8 17 -23 17 -81 0 -50 144 36 169 18 5 47 10
65 10 29 1 32 -2 32 -26z m2180 0 c0 -49 -76 -336 -103 -390 -41 -79 -96 -133
-138 -133 -40 0 -52 7 -68 38 -14 26 -8 29 49 34 30 3 39 10 67 57 32 54 83
191 83 224 0 11 -8 17 -23 17 -81 0 -50 144 36 169 18 5 47 10 65 10 29 1 32
-2 32 -26z m2530 0 c0 -49 -76 -336 -103 -390 -41 -79 -96 -133 -138 -133 -40
0 -52 7 -68 38 -14 26 -8 29 49 34 30 3 39 10 67 57 32 54 83 191 83 224 0 11
-8 17 -23 17 -81 0 -50 144 36 169 18 5 47 10 65 10 29 1 32 -2 32 -26z
m-1407 10 c3 -5 -1 -48 -9 -98 -19 -129 -10 -128 64 6 35 62 53 85 70 87 33 5
36 -16 12 -114 -11 -49 -20 -105 -18 -126 2 -38 -15 -68 -39 -68 -7 0 -22 18
-31 41 l-17 40 -28 -21 c-63 -50 -87 -3 -68 132 7 51 17 101 22 111 10 17 34
23 42 10z m2754 -50 c-4 -32 -10 -80 -13 -107 -10 -68 4 -56 68 59 41 74 58
95 74 95 33 0 35 -20 13 -112 -12 -46 -20 -103 -20 -127 1 -77 -38 -96 -66
-33 -10 20 -19 39 -20 41 -2 3 -13 -5 -26 -17 -67 -63 -94 4 -67 161 16 90 19
97 42 97 19 0 20 -4 15 -57z m490 0 c-4 -32 -10 -80 -13 -107 -10 -68 4 -56
68 59 41 74 58 95 74 95 33 0 35 -20 13 -112 -12 -46 -20 -103 -20 -127 1 -77
-38 -96 -66 -33 -10 20 -19 39 -20 41 -2 3 -13 -5 -26 -17 -67 -63 -94 4 -67
161 16 90 19 97 42 97 19 0 20 -4 15 -57z m-7039 11 c4 -42 -43 -223 -63 -243
-15 -15 -17 -14 -31 4 -11 14 -14 32 -10 60 30 208 33 218 74 213 22 -2 28 -9
30 -34z m126 20 c12 -11 14 -26 10 -57 -7 -45 -4 -44 39 14 29 40 60 54 77 34
16 -19 -20 -287 -39 -293 -12 -4 -13 14 -8 112 3 64 4 116 2 116 -3 0 -18 -26
-34 -57 -28 -56 -64 -103 -79 -103 -30 1 -35 20 -29 121 4 83 9 106 23 116 22
16 19 16 38 -3z m897 -48 c0 -44 2 -48 12 -31 25 41 75 85 90 79 24 -9 25 -22
11 -144 -18 -143 -22 -160 -35 -160 -8 0 -10 35 -7 115 2 63 3 115 2 115 -1 0
-17 -26 -34 -57 -54 -97 -88 -124 -108 -85 -16 29 3 204 23 218 30 22 45 6 46
-50z m329 23 c15 -53 4 -123 -28 -182 -25 -47 -50 -63 -88 -55 -49 9 -59 124
-19 205 27 53 56 71 76 47 8 -10 5 -26 -15 -66 -26 -53 -36 -138 -15 -138 20
0 52 93 54 160 2 73 2 70 15 70 5 0 14 -18 20 -41z m2730 26 c10 -13 8 -37
-14 -130 -33 -136 -59 -175 -83 -122 -8 16 -7 42 3 92 7 39 13 84 14 100 0 59
50 96 80 60z m628 -21 c4 -42 -43 -223 -63 -243 -15 -15 -17 -14 -31 4 -11 14
-14 32 -10 60 30 208 33 218 74 213 22 -2 28 -9 30 -34z m126 20 c12 -11 14
-26 10 -57 -7 -45 -4 -44 39 14 29 40 60 54 77 34 16 -19 -20 -287 -39 -293
-12 -4 -13 14 -8 112 3 64 4 116 2 116 -3 0 -18 -26 -34 -57 -28 -56 -64 -103
-79 -103 -30 1 -35 20 -29 121 4 83 9 106 23 116 22 16 19 16 38 -3z m-5220
-17 c13 -20 14 -34 0 -122 -8 -55 -16 -106 -19 -112 -8 -24 -42 -14 -55 16
-11 27 -13 28 -41 18 -53 -21 -78 14 -64 89 11 59 91 134 142 134 13 0 29 -10
37 -23z m3634 -229 c5 -24 -34 -107 -53 -114 -31 -12 -38 11 -19 63 9 26 22
54 27 61 13 17 41 11 45 -10z"/>
<path d="M9140 16385 l0 -635 531 0 c583 0 588 0 719 62 94 44 225 178 273
279 56 116 70 185 65 319 -3 85 -10 132 -27 180 -65 187 -211 338 -388 401
l-68 24 -552 3 -553 3 0 -636z"/>
<path d="M12848 6534 c13 -9 22 -26 22 -41 l0 -27 20 22 c17 18 19 25 8 42 -8
13 -24 20 -43 20 l-29 0 22 -16z"/>
<path d="M12804 6489 c-3 -6 -1 -16 5 -22 9 -9 14 -8 21 3 9 15 4 30 -10 30
-5 0 -12 -5 -16 -11z"/>
<path d="M13000 6447 c0 -13 -5 -28 -11 -34 -12 -12 -4 -33 12 -33 6 0 7 9 4
20 -5 15 -2 20 14 20 27 0 34 15 15 34 -22 22 -34 20 -34 -7z"/>
<path d="M13044 6364 c3 -8 2 -23 -4 -33 -8 -15 -6 -17 13 -14 18 4 24 -2 34
-34 6 -21 9 -50 6 -65 -7 -39 18 -37 36 3 10 23 10 34 2 42 -6 6 -11 20 -11
31 0 25 -47 86 -67 86 -10 0 -13 -6 -9 -16z"/>
<path d="M12868 6253 c-17 -38 -43 -95 -58 -128 -15 -33 -31 -71 -35 -85 -4
-14 -17 -43 -29 -65 -12 -22 -28 -56 -36 -75 -7 -19 -35 -81 -62 -138 -26 -57
-48 -107 -48 -111 0 -4 -29 -67 -65 -139 -36 -72 -65 -136 -65 -143 0 -7 -15
-40 -34 -73 -19 -34 -60 -124 -91 -201 -31 -77 -68 -162 -82 -190 -42 -82 -93
-205 -93 -226 0 -38 19 -17 70 79 108 201 86 194 539 191 185 -1 404 2 487 6
142 7 153 6 200 -14 68 -30 100 -64 144 -151 21 -41 47 -84 59 -94 21 -19 21
-19 21 1 0 27 -65 184 -108 262 -21 36 -55 104 -76 151 -22 47 -59 126 -83
177 -23 51 -57 123 -74 160 -17 37 -42 91 -54 118 -13 28 -33 75 -45 105 -43
108 -270 579 -301 621 -11 16 -27 29 -35 29 -9 0 -28 -28 -46 -67z m94 -100
c9 -10 27 -45 41 -78 14 -33 57 -126 96 -208 39 -81 79 -166 90 -190 21 -45
73 -158 139 -297 22 -47 60 -129 86 -183 51 -109 56 -147 25 -176 -18 -16 -42
-20 -187 -26 -91 -4 -309 -6 -483 -3 -277 4 -320 7 -343 21 -49 32 -40 67 91
357 12 25 31 68 43 95 12 28 50 109 85 180 35 72 73 153 85 180 12 28 32 73
45 100 12 28 37 84 55 125 18 41 42 85 53 98 25 26 58 29 79 5z"/>
<path d="M12970 5846 c0 -9 5 -16 10 -16 6 0 10 4 10 9 0 6 -4 13 -10 16 -5 3
-10 -1 -10 -9z"/>
<path d="M12906 5632 c-8 -10 -36 -67 -61 -128 -25 -60 -55 -128 -65 -151 -25
-54 -26 -108 -2 -118 9 -4 72 -9 139 -12 100 -3 127 -1 153 12 29 15 32 20 27
53 -2 21 -19 67 -36 105 -17 37 -31 70 -31 72 0 2 -11 29 -25 59 -14 30 -29
66 -35 80 -14 37 -43 50 -64 28z"/>
<path d="M12615 5100 c-3 -5 1 -10 9 -10 9 0 16 5 16 10 0 6 -4 10 -9 10 -6 0
-13 -4 -16 -10z"/>
<path d="M12062 4820 l-22 -19 24 -24 c30 -31 56 -21 39 15 -6 13 -13 28 -15
35 -2 8 -11 5 -26 -7z"/>
<path d="M12390 4815 c0 -8 5 -15 10 -15 6 0 10 7 10 15 0 8 -4 15 -10 15 -5
0 -10 -7 -10 -15z"/>
<path d="M12455 4742 c-16 -2 -35 -12 -42 -22 -10 -15 -22 -18 -51 -14 -20 3
-32 2 -26 -3 6 -4 13 -16 17 -25 7 -20 22 -23 32 -8 3 6 15 10 25 10 19 0 90
55 80 62 -3 2 -18 2 -35 0z"/>
<path d="M12067 4734 c-8 -8 1 -24 14 -24 5 0 9 7 9 15 0 15 -12 20 -23 9z"/>
<path d="M11986 4691 c-4 -5 -3 -16 0 -25 3 -9 1 -23 -6 -31 -20 -24 -4 -29
19 -6 12 12 28 21 36 21 8 0 15 5 15 10 0 6 -7 10 -15 10 -9 0 -18 7 -21 15
-7 17 -20 20 -28 6z"/>
<path d="M12233 4623 c-4 -10 -11 -21 -16 -24 -6 -4 -6 -15 -2 -25 5 -11 7
-24 7 -30 -1 -6 6 -18 15 -26 28 -25 63 -7 63 32 0 27 -3 30 -24 24 -34 -8
-45 15 -18 37 27 22 28 29 2 29 -11 0 -24 -8 -27 -17z"/>
<path d="M12097 4595 c-4 -8 -13 -15 -22 -15 -9 0 -15 -9 -15 -21 0 -21 0 -21
33 -2 32 19 42 43 21 50 -6 2 -14 -3 -17 -12z"/>
<path d="M12068 4513 c7 -3 16 -2 19 1 4 3 -2 6 -13 5 -11 0 -14 -3 -6 -6z"/>
<path d="M12108 4493 c6 -2 18 -2 25 0 6 3 1 5 -13 5 -14 0 -19 -2 -12 -5z"/>
<path d="M14160 6440 c0 -5 7 -10 15 -10 8 0 15 5 15 10 0 6 -7 10 -15 10 -8
0 -15 -4 -15 -10z"/>
<path d="M14405 6400 c-7 -11 189 -340 285 -480 66 -96 80 -117 114 -177 19
-34 55 -88 79 -120 91 -120 106 -204 111 -611 3 -306 8 -344 39 -313 9 9 12
95 12 359 1 228 5 354 12 367 6 11 13 36 17 55 3 20 25 60 47 90 23 30 56 85
75 122 18 36 38 69 44 73 6 4 22 30 36 58 15 29 41 72 59 97 17 25 64 101 104
170 40 69 97 165 127 215 58 96 62 105 40 105 -23 0 -184 -231 -236 -339 -17
-35 -47 -87 -68 -114 -40 -55 -74 -111 -121 -199 -42 -82 -84 -140 -126 -177
l-36 -31 -30 20 c-29 21 -79 80 -79 94 0 4 -31 53 -68 109 -38 56 -81 123 -95
149 -14 26 -61 100 -104 165 -43 65 -84 132 -92 148 -16 36 -120 175 -132 175
-4 0 -11 -5 -14 -10z"/>
<path d="M14590 6375 c0 -13 4 -14 20 -5 11 6 20 13 20 15 0 3 -9 5 -20 5 -11
0 -20 -7 -20 -15z"/>
<path d="M14194 6365 c-7 -18 4 -37 19 -32 16 5 16 47 0 47 -7 0 -16 -7 -19
-15z"/>
<path d="M14250 6333 c0 -31 21 -93 31 -93 4 0 9 7 13 15 7 19 36 20 36 0 0
-7 -7 -18 -16 -23 -15 -8 -14 -10 2 -16 27 -10 39 8 28 46 -7 25 -17 35 -42
43 -24 7 -32 15 -32 32 0 13 -4 23 -10 23 -5 0 -10 -12 -10 -27z"/>
<path d="M14387 6182 c-45 -6 -55 -42 -28 -97 24 -48 45 -58 54 -24 8 29 38
20 50 -15 8 -25 6 -32 -14 -48 -24 -18 -24 -19 -5 -33 11 -8 23 -15 28 -15 4
0 10 -11 14 -24 5 -23 7 -23 23 -7 11 11 18 36 20 70 2 46 -1 53 -18 58 -12 3
-26 20 -33 38 -6 19 -20 36 -30 38 -11 3 -18 14 -18 30 0 30 -6 34 -43 29z m3
-76 c0 -8 -4 -18 -10 -21 -5 -3 -10 3 -10 14 0 12 5 21 10 21 6 0 10 -6 10
-14z"/>
<path d="M14546 5943 c-9 -9 -7 -33 3 -33 12 0 22 28 12 34 -5 3 -11 3 -15 -1z"/>
<path d="M14520 5885 c-18 -22 -7 -28 35 -21 40 8 46 21 13 30 -32 8 -34 8
-48 -9z"/>
<path d="M14586 5791 c-4 -5 -3 -16 0 -25 6 -15 8 -15 20 1 7 10 14 21 14 26
0 10 -28 9 -34 -2z"/>
<path d="M14611 5714 c0 -11 3 -14 6 -6 3 7 2 16 -1 19 -3 4 -6 -2 -5 -13z"/>
<path d="M14775 5533 c8 -32 44 -75 57 -67 4 3 -1 17 -12 31 -11 14 -20 34
-20 44 0 11 -7 19 -16 19 -13 0 -15 -6 -9 -27z"/>
<path d="M14820 5400 c0 -43 13 -52 30 -20 8 14 8 26 0 40 -17 32 -30 23 -30
-20z"/>
<path d="M15138 5352 c-27 -64 -28 -83 -7 -110 24 -32 24 -50 -2 -78 -19 -21
-20 -24 -5 -52 8 -16 22 -32 31 -35 22 -9 18 -26 -9 -36 -18 -7 -24 -19 -30
-57 -10 -72 -7 -129 6 -142 10 -10 10 -17 0 -32 -6 -11 -12 -41 -12 -67 0 -30
-7 -60 -20 -81 -25 -41 -25 -39 8 -45 15 -3 46 -11 70 -17 51 -15 59 -9 43 27
-10 22 -10 28 3 35 12 7 16 27 16 86 0 81 -4 95 -32 105 -20 7 -14 37 8 37 24
0 37 49 24 95 -6 22 -11 45 -11 50 0 26 9 82 16 98 4 10 2 24 -6 33 -10 12
-13 42 -11 105 3 79 1 89 -14 89 -10 0 -25 7 -34 15 -15 13 -18 11 -32 -23z
m40 -60 c2 -7 -3 -12 -12 -12 -9 0 -16 7 -16 16 0 17 22 14 28 -4z m22 -477
c0 -8 -4 -15 -10 -15 -5 0 -10 7 -10 15 0 8 5 15 10 15 6 0 10 -7 10 -15z"/>
<path d="M14875 5361 c-3 -6 -12 -8 -19 -5 -9 3 -20 -7 -30 -27 -19 -38 -14
-46 17 -32 12 6 30 14 40 17 9 3 17 14 17 25 0 23 -16 36 -25 22z"/>
<path d="M14836 5262 c-4 -4 -13 -7 -19 -7 -13 0 -17 -7 -17 -31 0 -10 6 -13
19 -9 22 7 46 -18 37 -40 -3 -8 -17 -15 -31 -15 -29 0 -35 -29 -10 -50 19 -16
19 -36 1 -43 -21 -8 -32 -73 -16 -92 7 -8 14 -36 16 -61 2 -26 9 -53 16 -61
10 -12 8 -18 -9 -31 -12 -10 -24 -33 -28 -52 -4 -22 -3 -30 3 -22 5 7 16 10
26 6 15 -6 15 -8 1 -30 -15 -24 -21 -111 -7 -129 4 -5 21 -15 39 -21 34 -13
43 -5 43 37 0 10 7 19 15 19 20 0 19 20 -2 49 -14 21 -14 28 -3 60 19 50 21
168 4 186 -14 14 -16 62 -4 80 15 22 18 134 4 152 -7 10 -14 33 -14 50 0 25
-6 36 -29 47 -16 9 -32 12 -35 8z m39 -202 c3 -6 -4 -10 -17 -10 -18 0 -20 2
-8 10 19 12 18 12 25 0z"/>
<path d="M14970 4560 c6 -11 15 -18 21 -15 13 9 11 13 -12 25 -19 11 -20 10
-9 -10z"/>
<path d="M15155 4541 c-3 -5 -1 -12 5 -16 5 -3 10 1 10 9 0 18 -6 21 -15 7z"/>
<path d="M10705 6380 c-165 -3 -306 -9 -312 -13 -62 -40 118 -57 347 -32 57 6
71 3 110 -17 82 -42 77 7 87 -870 8 -772 11 -824 40 -794 8 8 10 1114 3 1427
-5 196 -1 206 82 234 43 15 88 18 243 19 179 1 215 5 215 26 0 30 -114 33
-815 20z"/>
<path d="M10782 5714 c-32 -22 -28 -56 8 -73 32 -14 66 -8 55 9 -4 6 -15 8
-26 5 -11 -4 -19 -2 -19 4 0 6 5 11 10 11 12 0 13 47 2 54 -5 3 -18 -2 -30
-10z"/>
<path d="M11092 5657 c-15 -17 -19 -84 -6 -97 7 -7 7 -28 0 -66 -8 -49 -8 -58
7 -69 21 -15 21 -24 2 -45 -9 -10 -13 -25 -9 -34 8 -20 24 -21 24 -1 0 8 6 15
14 15 19 0 28 -27 11 -34 -10 -4 -13 -14 -9 -36 7 -32 3 -35 -25 -21 -15 9
-16 5 -11 -42 7 -61 15 -77 39 -77 35 0 57 110 29 138 -10 10 -8 14 10 18 29
8 28 19 -4 57 -22 26 -25 38 -21 74 3 33 1 43 -10 43 -8 0 -13 6 -10 13 2 6
14 11 25 9 29 -4 28 16 -2 29 -39 18 -50 48 -33 97 11 33 12 42 2 42 -7 0 -17
-6 -23 -13z"/>
<path d="M10757 5579 c8 -8 16 -8 30 0 16 9 14 10 -11 11 -22 0 -27 -3 -19
-11z"/>
<path d="M10800 5406 c0 -8 -3 -21 -6 -30 -4 -10 -1 -16 9 -16 8 0 17 9 20 20
3 11 11 19 17 18 7 -2 15 3 17 10 3 8 -6 12 -26 12 -20 0 -31 -5 -31 -14z"/>
<path d="M11085 5062 c3 -12 0 -41 -7 -64 -11 -36 -10 -42 6 -54 15 -10 23
-11 40 -2 11 7 27 11 34 10 14 -3 17 34 2 43 -5 3 -20 -1 -33 -10 -13 -8 -27
-12 -30 -8 -13 12 -7 43 8 43 9 0 18 7 21 15 3 8 14 17 24 20 32 10 12 30 -31
30 -37 0 -40 -1 -34 -23z"/>
<path d="M10790 4931 c0 -13 37 -24 50 -16 6 4 8 11 5 16 -8 12 -55 12 -55 0z"/>
<path d="M11093 4893 c-13 -19 -14 -28 -5 -31 14 -4 16 -44 3 -57 -8 -9 -51
-154 -51 -171 0 -3 7 -3 15 0 16 6 35 -28 35 -63 0 -18 -38 -41 -67 -41 -25 0
-123 51 -123 64 0 12 -25 28 -62 40 -20 6 -22 14 -8 36 8 12 13 13 30 2 18
-11 20 -10 20 17 0 16 -7 34 -15 41 -10 8 -14 26 -13 48 3 31 0 37 -22 42 -15
3 -26 14 -28 27 -2 12 -10 24 -18 27 -13 5 -15 0 -9 -33 5 -28 2 -46 -9 -63
-14 -22 -13 -25 15 -53 l31 -30 -24 -5 c-34 -9 -45 -50 -24 -94 9 -19 21 -38
26 -41 6 -3 10 -17 10 -31 0 -49 110 -71 125 -24 8 26 35 26 42 0 4 -14 14
-20 32 -20 14 0 42 -3 61 -6 28 -5 42 0 72 23 22 16 37 36 37 48 0 11 -3 14
-6 8 -8 -20 -23 -15 -23 7 0 14 6 20 17 18 47 -8 -5 84 -53 94 -38 7 -21 33
23 36 30 2 46 9 53 23 13 23 5 39 -19 39 -43 0 -56 55 -16 70 25 9 35 30 15
30 -6 0 -16 11 -22 25 -14 32 -23 31 -45 -2z m-216 -349 c-3 -3 -12 -4 -19 -1
-8 3 -5 6 6 6 11 1 17 -2 13 -5z m237 -29 c3 -9 -1 -18 -10 -22 -19 -7 -39 11
-30 26 10 16 33 13 40 -4z"/>
<path d="M7040 6360 c-78 -10 -186 -45 -306 -101 -72 -34 -105 -57 -172 -123
-80 -78 -168 -196 -207 -281 -10 -22 -28 -80 -39 -130 -44 -191 -8 -513 75
-678 46 -89 193 -246 294 -313 50 -33 196 -92 255 -103 30 -6 127 -13 215 -17
133 -5 168 -3 205 10 25 9 54 16 65 16 11 0 30 6 41 14 11 8 52 27 90 42 97
39 127 59 229 160 123 121 183 229 219 398 43 197 34 370 -29 565 -50 153
-127 259 -265 366 -103 78 -139 97 -255 132 -139 43 -289 58 -415 43z m235
-56 c72 -5 144 -19 180 -34 158 -69 234 -115 322 -199 51 -49 164 -269 182
-357 9 -42 12 -123 9 -265 -4 -203 -4 -204 -37 -289 -73 -186 -220 -352 -367
-415 -33 -14 -66 -29 -74 -34 -8 -4 -40 -14 -70 -21 -30 -7 -68 -16 -84 -21
-41 -12 -221 -11 -308 2 -74 11 -179 38 -255 65 -87 32 -218 149 -298 269 -89
133 -115 223 -122 425 -4 124 -2 171 12 235 10 44 20 91 22 105 3 14 24 70 46
124 41 97 44 101 148 195 108 98 217 171 255 171 11 0 43 7 70 16 64 20 230
44 269 38 17 -3 62 -7 100 -10z"/>
<path d="M7000 6036 c-25 -6 -61 -19 -80 -29 -65 -32 -165 -115 -190 -157 -14
-23 -34 -54 -46 -68 -47 -62 -68 -165 -62 -313 4 -95 10 -130 38 -213 32 -94
38 -102 111 -177 87 -87 144 -121 257 -150 83 -22 154 -20 283 6 127 26 247
106 301 202 16 29 34 55 38 58 14 9 38 104 51 199 15 116 5 211 -33 316 -56
154 -141 245 -283 300 -33 13 -64 27 -69 32 -14 12 -263 8 -316 -6z"/>
<path d="M8150 5124 c0 -8 5 -12 10 -9 6 4 8 11 5 16 -9 14 -15 11 -15 -7z"/>
<path d="M7778 4706 c-18 -13 -14 -26 8 -26 6 0 22 9 35 20 l24 19 -25 0 c-14
0 -33 -6 -42 -13z"/>
<path d="M9375 6369 c-159 -5 -366 -7 -458 -4 -210 7 -298 -11 -218 -45 20 -8
70 -10 167 -6 77 4 162 8 189 9 62 3 122 -26 147 -72 17 -29 18 -87 25 -794 3
-419 9 -773 13 -786 8 -33 27 -37 36 -9 4 13 6 131 3 263 -2 132 -3 386 -1
565 1 179 -1 417 -6 530 -8 198 -8 206 12 237 32 49 104 63 324 63 138 0 182
3 198 14 18 14 18 15 -11 27 -43 17 -94 18 -420 8z"/>
<path d="M9072 5699 c-29 -27 -28 -53 3 -67 32 -15 65 -15 65 -2 0 6 -12 10
-27 10 -21 0 -24 3 -15 12 14 14 16 54 4 62 -5 3 -19 -4 -30 -15z"/>
<path d="M9387 5642 c-19 -21 -23 -82 -7 -98 7 -7 7 -27 -2 -63 -11 -47 -10
-55 5 -66 21 -15 22 -41 2 -49 -17 -6 -19 -15 -5 -36 8 -13 11 -13 22 2 10 13
17 15 28 8 13 -9 13 -12 -1 -23 -11 -8 -15 -22 -11 -45 2 -20 0 -32 -7 -32 -6
0 -11 5 -11 12 0 8 -3 9 -10 2 -5 -5 -6 -30 -2 -59 8 -55 32 -71 57 -38 18 22
19 105 3 121 -10 10 -8 14 10 18 28 8 28 21 0 52 -18 18 -23 35 -22 73 0 35
-3 49 -13 49 -8 0 -11 5 -8 10 3 6 15 10 26 10 26 0 24 17 -3 31 -13 7 -28 19
-35 28 -12 17 -7 69 8 86 5 5 9 13 9 17 0 14 -16 9 -33 -10z"/>
<path d="M9050 5570 c0 -5 6 -10 14 -10 8 0 18 5 21 10 3 6 -3 10 -14 10 -12
0 -21 -4 -21 -10z"/>
<path d="M9090 5396 c0 -8 -3 -21 -6 -30 -4 -11 -1 -16 10 -16 9 0 19 7 22 15
4 8 12 15 20 15 8 0 14 7 14 15 0 10 -10 15 -30 15 -19 0 -30 -5 -30 -14z"/>
<path d="M9374 5038 c0 -18 -4 -49 -8 -70 -7 -32 -5 -37 14 -43 12 -4 27 -1
35 5 8 7 22 10 30 6 11 -4 15 1 15 19 0 32 -17 41 -40 20 -10 -9 -24 -14 -29
-10 -16 10 -13 35 5 42 19 7 64 47 64 57 0 3 -19 6 -43 6 -42 0 -43 -1 -43
-32z"/>
<path d="M9097 4921 c-17 -6 -16 -8 6 -18 20 -9 26 -9 30 2 9 23 -4 29 -36 16z"/>
<path d="M9386 4885 c-13 -20 -14 -28 -4 -44 9 -15 9 -26 1 -43 -6 -13 -16
-43 -23 -68 -7 -25 -16 -55 -21 -68 -13 -33 -11 -42 9 -42 12 0 22 -12 29 -34
9 -29 8 -37 -6 -50 -24 -22 -80 -20 -119 4 -18 11 -39 20 -47 20 -8 0 -15 7
-15 16 0 20 -28 43 -51 44 -20 0 -30 22 -19 39 5 10 13 10 28 2 16 -9 21 -7
25 9 3 12 -2 28 -11 37 -10 10 -17 33 -17 57 0 34 -4 42 -22 44 -13 2 -24 13
-27 28 -4 13 -13 24 -21 24 -18 0 -20 -31 -3 -48 9 -9 7 -18 -9 -41 l-22 -28
30 -29 30 -29 -26 -8 c-14 -5 -28 -19 -31 -33 -6 -24 17 -87 36 -99 6 -3 10
-17 10 -30 0 -51 105 -74 125 -27 12 26 33 29 42 5 10 -27 23 -33 81 -33 43 0
60 5 88 28 18 15 34 33 34 41 0 11 -3 11 -15 1 -13 -11 -15 -9 -15 13 0 20 4
24 20 20 14 -4 20 0 20 10 0 25 -11 47 -24 47 -6 0 -17 9 -24 20 -7 11 -19 20
-26 20 -21 0 -31 21 -16 30 7 5 28 6 46 3 26 -4 34 -1 44 17 15 27 6 50 -18
50 -44 0 -54 56 -12 67 20 5 28 33 10 33 -6 0 -16 11 -22 25 -14 31 -22 31
-42 0z m-216 -349 c0 -11 -19 -15 -25 -6 -3 5 1 10 9 10 9 0 16 -2 16 -4z
m238 -39 c2 -12 -3 -17 -17 -17 -15 0 -21 6 -21 21 0 25 33 22 38 -4z"/>
<path d="M4885 6329 c-16 -5 -147 -9 -290 -7 -284 2 -297 0 -323 -58 -9 -18
-12 -210 -11 -707 2 -728 7 -918 25 -924 22 -7 26 34 31 282 6 282 9 295 71
313 56 17 599 16 628 -1 51 -30 77 -63 169 -212 53 -88 110 -178 126 -200 16
-22 45 -70 63 -106 32 -60 69 -99 96 -99 13 0 5 17 -65 130 -29 47 -74 126
-102 175 -27 50 -73 128 -102 175 -60 96 -74 149 -46 180 10 11 41 34 69 52
121 75 185 148 235 268 29 68 40 235 21 323 -30 148 -132 283 -264 349 -71 36
-95 44 -196 63 -84 17 -93 17 -135 4z m200 -71 c211 -63 327 -190 355 -390 17
-117 -14 -261 -73 -348 -76 -110 -178 -184 -282 -203 -27 -5 -193 -11 -367
-14 -364 -5 -365 -4 -385 68 -23 84 -32 738 -12 832 7 31 19 52 33 60 14 8 89
14 216 17 307 8 434 3 515 -22z"/>
<path d="M5090 6109 c0 -12 5 -19 12 -17 18 6 20 25 3 31 -10 5 -15 0 -15 -14z"/>
<path d="M4730 6051 c-102 -8 -116 -14 -137 -55 -14 -26 -16 -61 -15 -203 1
-95 6 -183 11 -196 5 -14 23 -34 39 -46 27 -19 44 -21 161 -21 219 0 307 35
364 145 16 31 21 59 21 120 0 90 -17 133 -77 196 -30 33 -41 37 -113 48 -122
17 -162 19 -254 12z"/>
<path d="M4497 5527 c-7 -20 28 -40 42 -23 7 9 7 16 -1 24 -16 16 -35 15 -41
-1z"/>
<path d="M4555 5482 c-11 -4 -29 -12 -39 -18 -17 -10 -18 -14 -5 -43 8 -17 20
-31 26 -31 7 0 13 -4 13 -10 0 -5 18 -10 40 -10 22 0 40 5 40 10 0 10 -2 11
-36 15 -47 5 -57 30 -24 60 33 30 27 40 -15 27z"/>
<path d="M4420 5461 c0 -13 26 -32 33 -24 14 13 6 33 -13 33 -11 0 -20 -4 -20
-9z"/>
<path d="M5019 5429 c-17 -17 -19 -23 -8 -30 15 -9 39 14 39 38 0 18 -7 16
-31 -8z"/>
<path d="M4798 5418 c-10 -10 -15 -24 -12 -32 7 -19 53 -6 71 21 13 19 12 21
-14 25 -18 2 -34 -3 -45 -14z"/>
<path d="M4736 5414 c-9 -24 -7 -28 9 -14 17 14 20 30 6 30 -5 0 -12 -7 -15
-16z"/>
<path d="M4645 5411 c-3 -5 4 -13 16 -16 23 -8 34 -1 24 14 -8 13 -32 14 -40
2z"/>
<path d="M5342 6325 l-23 -12 26 -32 c21 -24 35 -31 62 -31 27 0 34 4 31 18
-2 12 -14 18 -39 20 -32 3 -36 6 -31 28 5 27 6 27 -26 9z"/>
<path d="M5489 6168 c24 -39 41 -47 41 -19 0 19 -34 51 -53 51 -5 0 0 -15 12
-32z"/>
<path d="M5570 5751 c0 -6 5 -13 10 -16 6 -3 10 1 10 9 0 9 -4 16 -10 16 -5 0
-10 -4 -10 -9z"/>
<path d="M5570 5620 c0 -5 5 -10 10 -10 6 0 10 5 10 10 0 6 -4 10 -10 10 -5 0
-10 -4 -10 -10z"/>
<path d="M5497 5443 c-15 -8 -25 -18 -22 -23 6 -10 65 8 65 20 0 16 -15 17
-43 3z"/>
<path d="M5371 5354 c-23 -19 -31 -34 -31 -58 0 -18 4 -36 10 -42 12 -12 -10
-77 -35 -107 l-18 -21 -11 23 c-8 18 -7 26 4 35 8 6 20 25 26 43 11 29 10 31
-15 36 -14 3 -29 2 -32 -1 -13 -13 -20 -82 -9 -82 5 0 10 -11 10 -24 0 -13 6
-26 13 -29 9 -3 9 -8 -2 -21 -12 -14 -11 -20 9 -41 12 -13 29 -21 36 -18 19 7
54 -25 54 -48 0 -10 -9 -21 -21 -24 -19 -6 -16 -11 26 -56 25 -27 51 -62 56
-77 8 -24 14 -28 39 -24 36 5 39 -10 8 -31 -26 -17 -18 -31 24 -41 25 -6 28
-4 27 21 -2 48 -19 73 -51 73 -31 0 -36 11 -13 30 21 17 19 37 -5 50 -11 6
-20 17 -20 24 0 7 -9 21 -20 31 -21 19 -27 55 -10 55 15 0 12 15 -8 40 -14 17
-30 23 -63 24 -33 1 -45 5 -47 19 -3 13 3 17 27 17 33 0 47 14 43 46 -2 15 9
28 37 47 30 20 43 37 52 69 8 33 8 43 -1 46 -7 3 -20 13 -28 23 -21 24 -24 24
-61 -7z"/>
<path d="M5511 5363 c-7 -8 -11 -16 -8 -19 2 -2 10 2 17 11 17 20 9 27 -9 8z"/>
<path d="M4494 5149 c-3 -5 -16 -9 -30 -9 -17 0 -24 -5 -24 -20 0 -11 -6 -20
-12 -21 -22 -2 36 -17 68 -18 16 -1 40 -10 53 -22 12 -11 28 -18 35 -16 18 7
8 57 -11 57 -8 0 -28 13 -44 29 -16 16 -31 25 -35 20z"/>
<path d="M4645 5138 c9 -29 11 -31 24 -23 16 9 13 19 -10 33 -19 12 -20 12
-14 -10z"/>
<path d="M4860 5146 c0 -19 -21 -25 -41 -13 -13 8 -21 6 -35 -7 -17 -18 -17
-19 2 -33 10 -8 37 -23 59 -33 22 -9 49 -27 60 -40 11 -12 32 -28 47 -36 19
-10 28 -22 28 -38 0 -14 10 -30 25 -40 15 -10 26 -29 31 -53 4 -24 20 -53 44
-78 43 -46 60 -75 60 -104 0 -33 61 -106 90 -107 14 -1 33 -4 43 -9 13 -5 17
-2 17 14 0 14 -6 21 -20 21 -33 0 -26 39 10 51 l30 11 -20 25 c-11 14 -20 32
-20 39 0 7 -13 20 -30 29 -31 16 -37 29 -20 40 19 12 10 33 -20 44 -16 5 -30
17 -30 25 0 9 -11 23 -26 32 -17 12 -23 22 -18 33 14 34 10 57 -17 89 -16 18
-29 37 -29 42 0 5 -12 21 -27 35 -24 22 -34 24 -70 19 -39 -6 -43 -4 -52 19
-5 13 -20 27 -33 30 -33 10 -38 9 -38 -7z m215 -226 c0 -8 -8 -16 -17 -18 -13
-2 -18 3 -18 18 0 15 5 20 18 18 9 -2 17 -10 17 -18z m55 -115 c0 -8 -9 -15
-19 -15 -24 0 -36 16 -19 23 24 10 38 7 38 -8z m87 -169 c-4 -9 -13 -13 -22
-10 -18 7 -20 31 -2 37 17 6 31 -9 24 -27z"/>
<path d="M4720 5105 c7 -9 15 -13 17 -11 7 7 -7 26 -19 26 -6 0 -6 -6 2 -15z"/>
<path d="M4496 5023 c-11 -11 -6 -23 9 -23 8 0 15 4 15 9 0 13 -16 22 -24 14z"/>
<path d="M4410 4950 c-7 -14 -7 -20 0 -20 5 0 10 5 10 10 0 6 7 10 16 10 8 0
12 5 9 10 -10 16 -23 12 -35 -10z"/>
<path d="M4450 4875 c-6 -8 -9 -19 -6 -24 9 -14 36 -2 36 14 0 21 -16 26 -30
10z"/>
<path d="M4417 4816 c-6 -15 1 -26 15 -26 4 0 8 9 8 20 0 23 -15 27 -23 6z"/>
<path d="M4480 4710 c0 -5 5 -10 10 -10 6 0 10 5 10 10 0 6 -4 10 -10 10 -5 0
-10 -4 -10 -10z"/>
<path d="M5553 4698 c-6 -7 -13 -30 -17 -50 -8 -43 4 -49 42 -22 17 12 22 24
20 47 -3 34 -27 47 -45 25z"/>
<path d="M5520 4575 c-11 -20 -11 -27 0 -40 10 -12 16 -13 26 -4 18 15 18 43
1 58 -11 8 -17 5 -27 -14z"/>
<path d="M9337 3033 c-3 -4 -12 -35 -21 -67 -14 -57 -14 -76 3 -76 10 0 51 87
51 109 0 21 -25 47 -33 34z"/>
<path d="M11475 3030 c-9 -14 -35 -110 -35 -127 0 -7 6 -13 14 -13 13 0 56 86
56 113 0 21 -26 41 -35 27z"/>
<path d="M9163 3038 c-15 -19 -23 -48 -14 -48 9 0 34 50 28 57 -2 2 -9 -2 -14
-9z"/>
<path d="M9913 3038 c-15 -19 -23 -48 -14 -48 9 0 34 50 28 57 -2 2 -9 -2 -14
-9z"/>
<path d="M13073 3038 c-15 -19 -23 -48 -14 -48 9 0 34 50 28 57 -2 2 -9 -2
-14 -9z"/>
<path d="M14661 3032 c-7 -13 -11 -28 -8 -35 2 -7 9 -2 16 11 7 13 11 28 8 35
-2 7 -9 2 -16 -11z"/>
<path d="M7458 3023 c-19 -22 -32 -63 -20 -63 11 0 36 27 51 58 9 18 9 22 -2
22 -8 0 -21 -8 -29 -17z"/>
<path d="M9638 3023 c-19 -22 -32 -63 -20 -63 11 0 36 27 51 58 9 18 9 22 -2
22 -8 0 -21 -8 -29 -17z"/>
<path d="M12168 3023 c-19 -22 -32 -63 -20 -63 11 0 36 27 51 58 9 18 9 22 -2
22 -8 0 -21 -8 -29 -17z"/>
<path d="M6587 2958 c-28 -43 -34 -68 -17 -68 11 0 70 84 70 99 0 24 -27 8
-53 -31z"/>
</g>
</svg>
